<?xml version="1.0" standalone="no"?>
<!DOCTYPE svg PUBLIC "-//W3C//DTD SVG 20010904//EN"
 "http://www.w3.org/TR/2001/REC-SVG-20010904/DTD/svg10.dtd">
<svg version="1.0" xmlns="http://www.w3.org/2000/svg"
 width="1080.000000pt" height="771.000000pt" viewBox="0 0 1080.000000 771.000000"
 preserveAspectRatio="xMidYMid meet">

<g transform="translate(0.000000,771.000000) scale(0.100000,-0.100000)"
fill="#000000" stroke="none">
<path d="M0 6748 c1 -907 2 -961 17 -928 l17 35 4 -39 c2 -28 -2 -47 -17 -67
-21 -28 -21 -33 -21 -1033 0 -991 0 -1005 20 -1011 19 -6 40 -58 40 -98 0 -26
-22 -16 -40 19 -14 28 -15 24 -18 -79 -3 -104 -2 -109 24 -140 24 -29 25 -32
8 -44 -10 -7 -21 -13 -26 -13 -13 0 -9 -558 4 -584 23 -43 29 -58 39 -84 9
-25 7 -24 -21 8 -36 43 -40 27 -5 -20 18 -25 22 -36 13 -39 -28 -9 -38 -32
-38 -83 0 -29 7 -71 15 -93 8 -22 14 -62 14 -90 0 -45 -1 -48 -14 -31 -25 33
-13 -128 13 -187 12 -27 22 -54 22 -61 0 -6 7 -21 15 -33 11 -16 12 -28 5 -49
-5 -16 -8 -38 -6 -49 3 -11 5 -27 5 -35 1 -13 2 -13 11 0 9 13 10 13 11 0 1
-8 1 -21 0 -27 -1 -7 3 -13 8 -13 6 0 7 -7 4 -17 -4 -11 -3 -14 5 -9 6 4 17
-5 26 -21 9 -16 15 -21 16 -13 0 9 -7 26 -16 38 -8 12 -14 30 -11 40 2 12 11
2 28 -31 22 -46 23 -50 6 -61 -9 -7 -17 -19 -17 -26 0 -6 -13 -32 -30 -57 -17
-24 -30 -48 -30 -52 0 -5 -17 -12 -38 -17 -29 -6 -32 -9 -14 -12 12 -2 22 -8
22 -14 0 -6 -11 -8 -25 -5 l-26 4 2 -108 c1 -74 5 -109 13 -109 7 0 8 -3 0 -8
-6 -4 -11 -71 -13 -174 -3 -162 -2 -167 19 -178 26 -14 38 -6 22 13 -9 11 -7
13 11 12 17 -1 21 -7 19 -26 -5 -31 -3 -30 -40 -20 l-32 10 0 -520 0 -519
1140 0 1140 0 -6 28 c-9 34 -6 32 -32 25 -12 -3 -21 -11 -20 -19 3 -13 1 -14
-32 -14 -30 0 -24 13 15 34 35 19 35 20 29 69 -6 44 -5 49 12 45 14 -2 22 -16
28 -52 10 -48 10 -48 43 -43 26 5 36 2 46 -14 6 -10 17 -19 23 -19 6 0 21 -8
32 -19 19 -16 28 -17 74 -8 39 8 53 7 56 -1 3 -9 151 -12 592 -12 513 0 589 2
594 15 7 19 36 19 36 0 0 -13 397 -15 3515 -15 l3515 0 0 1463 c0 1286 -2
1467 -16 1507 -17 51 -37 98 -63 150 -9 19 -27 73 -40 120 -13 47 -28 103 -34
125 -6 22 -23 78 -38 125 -62 193 -119 443 -119 516 0 31 18 95 29 104 4 3 19
25 35 50 34 53 101 119 130 130 12 4 42 10 69 14 l47 7 0 1081 0 1080 -23 18
c-26 20 -107 195 -107 230 0 12 5 30 11 41 8 16 17 19 47 13 20 -3 41 -10 46
-15 6 -5 14 -9 18 -9 4 0 8 216 8 480 l0 480 -3035 0 c-2324 0 -3034 -3 -3032
-12 1 -7 -6 -14 -15 -16 -11 -2 -18 2 -18 12 0 13 -12 16 -64 16 -60 0 -64 -1
-59 -21 7 -25 -11 -39 -49 -39 -21 0 -28 5 -28 20 0 10 8 24 18 29 12 8 -3 10
-61 11 -71 0 -77 -1 -63 -16 29 -29 17 -64 -34 -98 -37 -25 -82 -20 -128 14
-46 33 -56 71 -24 89 15 9 15 10 -5 11 -14 0 -23 -6 -23 -15 0 -25 -103 -24
-131 1 -13 12 -301 14 -2032 14 l-2017 0 0 -962z m5087 878 c45 -31 93 -102
93 -138 0 -28 -30 -63 -62 -74 -24 -7 -153 23 -190 45 -17 9 -28 24 -28 38 0
12 -5 34 -10 48 -9 23 -7 30 12 45 22 18 36 24 103 48 43 14 43 14 82 -12z
m-367 -70 c0 -9 -30 -14 -35 -6 -4 6 3 10 14 10 12 0 21 -2 21 -4z m1330 -252
c6 -14 10 -31 10 -37 -1 -16 -39 34 -40 51 0 22 20 13 30 -14z m1870 -710 c0
-8 4 -14 9 -14 4 0 22 -12 39 -27 22 -20 39 -51 57 -107 14 -43 25 -88 25
-100 0 -11 7 -39 15 -61 20 -57 18 -83 -10 -110 -19 -20 -34 -25 -73 -25 -41
0 -53 5 -77 30 -27 28 -64 43 -50 20 3 -5 -3 -11 -14 -11 -12 -1 -25 -3 -31
-4 -5 -1 -16 -3 -24 -4 -7 0 -16 -13 -19 -28 -7 -35 -32 -51 -83 -53 -64 -3
-67 -2 -112 40 -35 33 -46 39 -62 30 -10 -5 -20 -20 -22 -32 -3 -20 -44 -56
-123 -108 -30 -20 -118 -42 -165 -42 -17 0 -40 16 -76 56 -28 31 -58 56 -66
56 -27 0 -76 -55 -88 -98 -21 -80 -105 -151 -155 -132 -14 5 -24 14 -20 19 16
27 -52 12 -204 -44 -35 -13 -77 -15 -225 -13 -173 3 -183 2 -217 -20 -20 -12
-51 -22 -68 -22 -18 0 -50 -9 -72 -21 -37 -18 -44 -19 -76 -7 -26 11 -46 12
-83 4 -48 -9 -49 -9 -103 32 -58 45 -77 51 -97 27 -17 -21 -40 -19 -67 6 -26
26 -43 17 -70 -35 -9 -17 -22 -38 -30 -46 -8 -8 -20 -24 -28 -35 -12 -17 -14
-17 -15 -3 0 9 16 35 35 58 19 23 35 48 35 56 0 7 11 21 25 30 22 15 31 15 64
4 29 -9 43 -9 59 -1 18 10 190 23 324 25 20 1 34 3 32 6 -3 2 32 12 78 22 46
9 108 24 138 34 82 24 150 33 315 39 140 5 154 8 206 34 69 36 175 78 214 86
86 17 94 17 123 0 29 -18 33 -17 164 14 73 18 148 39 165 46 29 12 116 86 208
176 30 29 47 37 43 20 -2 -5 11 -27 27 -50 22 -31 35 -40 50 -36 11 2 30 5 43
5 12 0 22 5 22 10 0 6 -5 10 -11 10 -15 0 -98 53 -99 63 0 4 15 25 34 45 19
20 62 79 96 130 51 76 65 91 76 81 8 -6 14 -18 14 -25z m-2557 -34 c35 -16 89
-32 122 -36 70 -8 99 -21 139 -63 19 -19 40 -31 56 -31 14 0 31 -5 38 -12 15
-15 16 -42 1 -32 -6 3 -30 -12 -52 -33 -23 -22 -50 -43 -59 -46 -11 -4 -18
-17 -18 -33 0 -22 2 -25 15 -14 12 10 15 9 15 -4 0 -9 -12 -22 -27 -28 -23 -9
-25 -12 -10 -15 17 -4 16 -8 -9 -34 -30 -31 -54 -38 -54 -15 0 7 -10 24 -23
37 -12 13 -33 47 -47 74 -13 28 -30 56 -37 64 -8 7 -12 20 -9 27 7 18 -11 18
-21 0 -10 -17 -75 -36 -126 -36 -23 0 -36 -4 -32 -10 4 -7 -12 -8 -48 -4 -46
5 -54 4 -54 -10 0 -12 9 -16 33 -14 18 1 36 -1 40 -5 4 -4 2 -7 -5 -7 -7 0 -9
-4 -6 -10 3 -5 1 -10 -4 -10 -6 0 -11 -7 -11 -15 0 -8 -4 -15 -10 -15 -5 0
-10 -5 -10 -11 0 -7 10 -9 25 -5 39 10 28 -26 -11 -38 -24 -7 -37 -39 -22 -54
6 -6 0 -9 -16 -9 -15 0 -26 5 -26 13 0 8 -4 14 -9 14 -10 0 -36 88 -29 96 9 9
38 -8 38 -22 0 -26 26 -14 37 17 16 41 8 54 -17 29 -17 -17 -24 -18 -52 -8
-38 13 -51 29 -38 42 12 12 13 26 3 25 -24 -4 -24 4 1 30 15 16 26 33 24 38
-10 25 95 8 183 -31 14 -6 17 0 21 39 2 25 0 52 -4 58 -3 7 -10 39 -13 72 l-7
60 32 2 c18 1 58 -10 93 -27z m-1053 -39 c5 -11 10 -36 10 -55 0 -29 -4 -36
-19 -36 -22 0 -31 19 -31 64 0 49 21 62 40 27z m730 -130 c0 -5 -7 -14 -16
-22 -13 -10 -17 -10 -24 1 -14 22 -22 5 -26 -52 -7 -99 -13 -118 -47 -138 -20
-12 -50 -20 -79 -20 -41 0 -50 -4 -70 -30 -14 -20 -31 -30 -47 -30 -36 0 -101
-19 -101 -29 0 -7 -15 -13 -78 -27 -29 -6 -24 -14 6 -10 17 2 31 1 30 -3 -2
-23 4 -41 12 -36 15 9 48 -4 52 -20 2 -11 10 -10 41 5 l37 18 0 -24 c0 -13 11
-34 25 -46 24 -21 24 -22 8 -41 -17 -18 -17 -20 4 -37 15 -12 20 -24 16 -39
-4 -17 -2 -20 12 -15 13 5 14 9 3 15 -10 7 -7 11 10 15 12 4 22 10 22 15 0 5
5 9 10 9 6 0 10 -7 10 -16 0 -11 6 -14 22 -8 19 6 21 4 12 -7 -6 -8 -8 -25 -4
-39 6 -21 8 -23 15 -8 9 21 29 12 21 -9 -3 -8 -3 -20 1 -26 5 -7 10 5 13 28 6
44 31 56 37 16 2 -13 8 -31 13 -40 8 -14 9 -13 10 7 0 12 5 22 10 22 6 0 10
-11 10 -25 0 -14 -4 -25 -10 -25 -5 0 -10 -6 -10 -14 0 -18 -20 -32 -29 -20
-6 10 -47 34 -56 34 -3 0 -5 -11 -5 -25 0 -15 9 -31 25 -41 13 -9 27 -26 31
-37 7 -22 7 -22 16 -2 7 17 8 16 3 -5 -2 -14 -5 -33 -5 -42 0 -10 -3 -17 -7
-17 -23 4 -33 -3 -33 -21 0 -18 -3 -19 -20 -8 -14 9 -16 14 -7 20 7 4 8 8 1 8
-5 0 -19 19 -29 43 -13 28 -20 36 -23 25 -4 -21 -7 -22 -34 -7 -18 10 -20 9
-14 -7 7 -17 6 -17 -12 1 -24 25 -18 39 14 31 19 -5 24 -2 24 12 0 10 -7 27
-15 38 -14 19 -14 19 -15 0 0 -25 -28 -56 -51 -56 -10 0 -23 9 -29 21 -11 19
-12 19 -34 -13 -20 -29 -26 -33 -62 -30 -25 2 -51 14 -74 33 -42 35 -107 75
-137 83 -15 5 -25 2 -31 -11 -9 -16 -5 -18 29 -18 51 -1 55 -8 24 -40 -22 -25
-25 -36 -23 -96 2 -89 -31 -167 -74 -176 -15 -3 -28 -9 -28 -13 0 -4 -18 -12
-40 -19 -22 -7 -39 -15 -36 -19 9 -15 -143 -13 -180 3 -43 18 -79 21 -54 5 8
-5 11 -10 7 -10 -14 0 18 -27 40 -34 12 -4 42 -26 68 -49 64 -59 73 -67 81
-67 9 0 59 -53 57 -61 -1 -3 14 -11 33 -18 19 -7 32 -16 29 -21 -3 -4 5 -10
16 -13 12 -3 18 -10 15 -16 -4 -6 5 -13 19 -17 14 -3 25 -10 25 -15 0 -5 6 -9
14 -9 16 0 29 -27 20 -41 -9 -15 -27 -10 -21 5 4 10 1 13 -9 9 -9 -3 -14 0
-12 8 2 8 -3 13 -10 11 -7 -1 -23 -3 -36 -4 -16 -2 -22 -7 -19 -19 3 -10 -5
-23 -17 -32 -13 -9 -20 -22 -17 -30 4 -12 0 -13 -21 -8 -16 5 -29 16 -32 30
-5 21 -7 22 -19 7 -7 -9 -21 -16 -30 -16 -9 0 -22 -5 -29 -12 -9 -9 -12 -8
-12 6 0 16 -2 17 -17 5 -14 -12 -15 -12 -10 1 4 8 10 23 13 33 4 10 17 17 33
17 15 0 32 5 39 12 8 8 18 8 34 2 26 -11 68 -7 68 7 0 17 -130 15 -140 -2 -4
-5 -17 -4 -33 4 -19 8 -31 24 -38 52 -6 22 -16 46 -21 52 -6 7 -7 20 -4 29 4
11 2 15 -8 11 -7 -3 -19 0 -26 6 -9 9 -10 3 -3 -28 11 -57 9 -143 -6 -194 -18
-63 -23 -44 -10 37 11 69 5 182 -10 182 -4 0 -21 -19 -38 -42 -36 -50 -94
-110 -100 -104 -8 8 91 159 108 163 16 4 15 9 -12 45 -16 23 -29 53 -29 69 0
38 45 89 78 89 14 0 22 3 19 7 -10 9 33 53 52 53 9 0 30 9 46 20 77 51 105 -1
33 -63 -34 -30 -39 -37 -24 -43 27 -10 83 3 152 35 84 39 98 68 85 173 -6 40
-15 97 -22 126 -16 69 -7 79 56 62 25 -7 66 -26 91 -42 45 -28 64 -29 64 -4 0
8 6 18 13 24 10 8 21 3 45 -19 l32 -30 0 32 c0 18 -3 29 -7 26 -3 -4 -14 0
-24 9 -10 9 -25 14 -34 11 -9 -4 -15 -1 -15 8 0 8 5 15 12 15 8 0 9 3 1 11 -5
5 -32 12 -59 15 -54 5 -107 32 -112 56 -2 8 16 44 40 80 24 36 51 80 60 97 9
17 25 31 35 31 10 0 41 11 68 25 28 13 55 25 61 25 6 0 15 35 21 83 9 77 5
129 -12 170 -5 12 -3 17 9 17 9 0 26 -21 41 -49 21 -43 24 -58 18 -114 l-6
-65 35 11 c34 11 35 12 30 54 -4 42 9 60 21 29 3 -8 20 -22 38 -31 42 -22 55
-9 73 79 8 37 22 76 32 87 17 19 64 27 64 10z m-886 -56 c10 -26 -15 -65 -48
-74 -41 -10 -56 -4 -56 24 0 44 89 87 104 50z m1076 -84 c0 -5 -7 -11 -15 -15
-15 -5 -20 5 -8 17 9 10 23 9 23 -2z m2946 -148 c-4 -4 -11 -1 -16 7 -16 25
-11 35 7 17 9 -9 13 -20 9 -24z m-3015 -100 c-10 -17 -10 -16 -11 3 0 23 13
41 18 25 2 -6 -1 -18 -7 -28z m-4012 -73 c0 -9 -4 -8 -9 5 -5 11 -9 27 -9 35
0 9 4 8 9 -5 5 -11 9 -27 9 -35z m8 -42 c-3 -8 -6 -5 -6 6 -1 11 2 17 5 13 3
-3 4 -12 1 -19z m22 -68 c0 -9 -4 -8 -9 5 -5 11 -9 27 -9 35 0 9 4 8 9 -5 5
-11 9 -27 9 -35z m8691 1 c81 -51 113 -102 125 -201 9 -71 28 -150 36 -150 5
0 9 -9 9 -19 0 -11 8 -26 18 -33 11 -7 26 -29 36 -48 9 -19 29 -50 45 -69 24
-30 35 -35 84 -39 38 -3 62 0 75 10 30 20 102 110 102 127 0 28 63 141 107
190 30 34 57 54 81 60 34 9 53 7 145 -15 15 -3 32 -15 38 -27 15 -27 3 -93
-25 -142 -23 -39 -40 -69 -106 -190 -18 -33 -54 -92 -81 -131 -26 -40 -67
-107 -90 -150 -24 -44 -53 -92 -65 -109 -12 -16 -39 -65 -60 -108 -21 -43 -48
-88 -61 -101 -28 -28 -77 -40 -101 -25 -26 16 -42 100 -42 215 0 116 -14 208
-38 244 -9 14 -21 32 -27 42 -5 9 -27 36 -48 61 -26 31 -51 81 -81 164 -24 65
-59 144 -79 174 -64 96 -95 226 -67 279 11 21 26 19 70 -9z m-4950 -11 c0 -5
-5 -10 -11 -10 -5 0 -7 5 -4 10 3 6 8 10 11 10 2 0 4 -4 4 -10z m-3722 -90 c0
-22 -1 -22 -8 5 -4 17 -8 39 -8 50 0 16 2 15 8 -5 4 -14 8 -36 8 -50z m402 45
c26 -28 16 -33 -17 -10 -12 9 -29 12 -40 8 -16 -6 -16 -5 -4 10 19 23 33 21
61 -8z m-70 -20 c13 -16 3 -20 -24 -9 -9 3 -13 10 -10 15 8 13 20 11 34 -6z
m-65 -35 c3 -5 2 -10 -4 -10 -5 0 -13 5 -16 10 -3 6 -2 10 4 10 5 0 13 -4 16
-10z m7268 -12 c7 -27 5 -30 -16 -23 -23 9 -29 45 -7 45 10 0 20 -10 23 -22z
m-7544 -75 c-1 -53 -6 -49 -11 10 -2 20 0 37 4 37 4 0 8 -21 7 -47z m4351 11
c13 -14 12 -18 -15 -37 -16 -12 -40 -32 -52 -44 -13 -13 -28 -23 -33 -23 -17
0 -31 -39 -37 -106 -4 -48 -12 -71 -26 -85 -12 -10 -24 -19 -29 -19 -16 0 -7
28 14 42 18 12 23 26 26 84 4 60 8 73 34 100 27 29 29 36 23 77 l-7 45 43 -9
c24 -6 51 -17 59 -25z m-440 -20 c0 -8 -5 -14 -11 -14 -8 0 -10 -13 -6 -37 l5
-38 -13 30 c-17 36 -18 55 -5 55 6 0 10 7 10 16 0 8 5 12 10 9 6 -3 10 -13 10
-21z m-420 -24 c-24 -15 -37 -11 -16 5 11 8 22 12 25 9 3 -3 -1 -9 -9 -14z
m-4447 -20 c19 -16 46 -47 62 -70 l28 -40 -18 -35 c-20 -36 -56 -61 -74 -51
-18 12 -12 23 15 30 19 5 25 12 21 26 -3 12 2 20 15 23 26 7 16 23 -31 47 -57
28 -101 69 -94 85 8 24 40 17 76 -15z m4627 5 c0 -8 -4 -15 -9 -15 -13 0 -22
16 -14 24 11 11 23 6 23 -9z m-3430 -5 c0 -5 -4 -10 -10 -10 -5 0 -10 5 -10
10 0 6 5 10 10 10 6 0 10 -4 10 -10z m-230 -118 c0 -71 -4 -104 -15 -118 -13
-17 -14 -16 -5 16 6 19 10 72 10 117 0 46 2 83 5 83 3 0 5 -44 5 -98z m3317
56 c-3 -7 -5 -2 -5 12 0 14 2 19 5 13 2 -7 2 -19 0 -25z m-2591 -25 c-2 -2
-11 0 -20 3 -14 5 -15 9 -5 15 12 7 34 -10 25 -18z m3027 -36 c-9 -16 -26 12
-18 30 7 17 8 17 15 -2 4 -11 5 -24 3 -28z m-3218 -67 c-3 -5 -10 -10 -16 -10
-5 0 -9 5 -9 10 0 6 7 10 16 10 8 0 12 -4 9 -10z m3413 -22 c17 -17 15 -48 -3
-48 -8 0 -15 6 -15 14 0 8 -3 21 -6 30 -7 19 7 21 24 4z m-3428 -8 c8 -5 11
-12 8 -16 -10 -9 -38 3 -38 16 0 12 10 13 30 0z m2635 -19 c3 -5 1 -12 -5 -16
-5 -3 -10 1 -10 9 0 18 6 21 15 7z m3735 -16 c12 -23 11 -28 -15 -55 -22 -23
-32 -27 -42 -19 -15 13 -18 49 -3 49 6 0 10 9 10 19 0 17 11 28 31 30 3 1 12
-10 19 -24z m-3396 0 c-7 -17 -20 -20 -28 -6 -7 10 3 21 20 21 8 0 11 -6 8
-15z m-4525 -18 c14 -18 4 -27 -31 -27 -46 0 -36 30 13 39 4 0 12 -5 18 -12z
m902 -113 c-17 -59 -34 -110 -38 -113 -7 -7 -6 -1 33 136 16 56 30 98 32 93 2
-5 -11 -57 -27 -116z m613 105 c-3 -5 -10 -7 -15 -3 -5 3 -7 10 -3 15 3 5 10
7 15 3 5 -3 7 -10 3 -15z m-1296 -10 c17 -6 38 -21 46 -34 20 -30 20 -35 1
-35 -8 0 -12 6 -9 15 4 10 -6 17 -40 26 -27 7 -46 17 -46 25 0 17 8 17 48 3z
m7212 -29 c23 -29 41 -41 68 -45 78 -13 88 -17 106 -41 l18 -25 -38 19 c-22
11 -57 25 -79 32 -53 17 -149 100 -116 100 5 0 23 -18 41 -40z m-2284 -17
c-11 -11 -19 6 -11 24 8 17 8 17 12 0 3 -10 2 -21 -1 -24z m2144 11 c0 -8 -7
-14 -15 -14 -15 0 -21 21 -9 33 10 9 24 -2 24 -19z m-5896 -29 c19 -15 19 -15
-1 -15 -11 0 -23 7 -27 15 -7 19 3 19 28 0z m546 -15 c0 -5 -2 -10 -4 -10 -3
0 -8 5 -11 10 -3 6 -1 10 4 10 6 0 11 -4 11 -10z m5407 -10 c14 -11 38 -20 53
-20 20 0 35 -10 55 -36 32 -41 78 -64 132 -64 21 0 47 -7 57 -15 26 -20 32
-19 56 7 31 33 25 48 -17 49 l-38 1 38 10 c49 13 69 -1 60 -44 -3 -16 -1 -46
5 -66 6 -20 16 -68 22 -107 6 -38 17 -79 24 -90 7 -11 16 -39 19 -61 6 -38 4
-44 -21 -60 -15 -10 -35 -17 -44 -16 -19 3 -24 -13 -8 -23 18 -11 11 -25 -12
-25 -32 0 -52 -15 -45 -34 4 -11 19 -16 42 -16 20 0 47 -7 61 -16 32 -21 36
-16 23 30 -6 21 -7 41 -4 44 8 8 55 -47 55 -64 0 -6 18 -32 40 -57 42 -47 71
-103 69 -134 0 -11 -5 -5 -12 13 -7 18 -27 47 -44 65 -18 18 -33 36 -33 40 0
13 -33 20 -40 8 -4 -6 -29 -15 -56 -20 -40 -8 -51 -6 -60 6 -6 8 -18 15 -26
15 -14 0 -14 -5 -3 -37 16 -45 39 -53 64 -22 18 22 20 22 43 7 14 -9 34 -15
44 -12 14 4 25 -4 39 -28 11 -18 19 -36 17 -40 -1 -5 2 -8 7 -8 16 0 24 -79
10 -96 -11 -13 -10 -18 4 -25 13 -8 16 -19 11 -47 -4 -26 1 -48 15 -77 23 -44
26 -60 10 -50 -6 4 -13 -2 -16 -14 -3 -12 -10 -21 -17 -21 -6 0 -3 -5 7 -11 9
-5 17 -16 17 -23 0 -22 94 -60 134 -53 l35 6 -15 -42 c-8 -24 -30 -56 -52 -74
-34 -30 -37 -36 -39 -90 0 -32 -4 -72 -8 -89 -6 -27 -10 -30 -38 -26 -18 3
-44 14 -59 25 -15 11 -31 17 -35 12 -5 -4 -2 -10 5 -12 14 -6 16 -23 2 -23 -6
0 -50 19 -98 41 -92 44 -184 80 -190 74 -9 -9 14 -28 66 -55 31 -16 77 -43
102 -59 25 -17 50 -31 56 -31 5 0 23 -13 39 -30 16 -16 34 -30 41 -30 7 0 14
-3 16 -7 2 -5 35 -24 73 -44 48 -24 78 -47 94 -72 30 -45 46 -46 93 -7 29 24
38 28 45 17 6 -11 20 -13 52 -8 37 5 48 12 64 39 30 50 33 141 9 262 -12 58
-24 146 -27 195 -10 128 -6 130 151 89 14 -4 28 1 40 14 11 11 39 28 64 39 25
11 61 36 81 55 21 22 53 41 80 48 24 7 49 16 54 20 6 5 32 16 59 25 38 13 68
15 140 10 80 -6 98 -11 148 -41 68 -42 94 -72 108 -128 6 -22 19 -61 31 -85
11 -23 29 -71 40 -105 11 -33 24 -70 29 -81 53 -117 62 -146 63 -190 2 -75
-39 -139 -170 -270 -131 -131 -138 -146 -127 -291 6 -84 5 -97 -12 -115 -23
-26 -67 -21 -150 16 -49 22 -60 23 -102 13 -56 -13 -91 -51 -103 -111 -4 -23
-11 -98 -15 -167 -6 -128 -9 -135 -68 -251 -50 -95 -111 -88 -217 25 -77 83
-140 123 -237 152 -42 12 -102 32 -132 44 -30 12 -76 28 -102 36 -51 16 -86
50 -123 124 -37 73 -48 79 -102 50 -25 -13 -57 -39 -71 -58 -25 -33 -45 -45
-97 -58 -22 -5 -25 -3 -25 20 0 15 12 49 26 77 33 65 66 172 59 193 -16 51
-16 51 -31 11 -7 -22 -14 -46 -14 -54 0 -7 -16 -31 -35 -52 -19 -22 -35 -46
-35 -55 0 -18 -30 -89 -65 -154 -20 -39 -22 -52 -15 -85 13 -55 12 -88 -2
-107 -12 -15 -17 -15 -62 0 -45 15 -49 15 -61 -1 -17 -23 -67 -21 -93 3 -26
24 -27 33 -7 50 8 7 15 23 15 37 0 30 32 43 80 31 47 -12 95 5 85 30 -4 9 -13
31 -19 49 -17 47 -45 73 -77 73 -29 0 -56 -31 -44 -51 4 -5 4 -21 1 -34 -7
-28 -58 -44 -82 -24 -13 10 -13 14 1 29 22 24 19 54 -10 96 -14 20 -25 48 -25
61 0 16 -8 27 -27 35 -66 26 -96 45 -115 71 -24 33 -34 28 -59 -29 -19 -41
-21 -43 -57 -37 -41 6 -85 27 -119 57 l-23 19 0 -29 c0 -38 -47 -81 -98 -90
-20 -3 -44 -15 -53 -26 -14 -18 -17 -18 -60 -4 -24 9 -47 16 -51 16 -14 0 -8
-28 7 -34 8 -3 15 -17 15 -31 0 -21 5 -25 30 -25 16 0 33 7 38 16 14 25 47 13
47 -18 0 -15 10 -34 24 -45 l25 -20 -22 -19 c-18 -15 -21 -25 -16 -54 4 -19
13 -48 21 -63 16 -31 82 -66 124 -67 36 0 94 -30 119 -62 18 -23 29 -28 68
-28 l47 0 -28 -23 c-23 -18 -28 -29 -25 -57 3 -34 5 -35 47 -38 40 -3 46 0 87
43 47 48 52 65 30 88 -24 24 -12 48 30 63 56 20 75 17 112 -16 39 -36 40 -48
7 -55 -14 -3 -36 -7 -49 -10 -26 -5 -146 -149 -203 -244 -18 -29 -42 -60 -54
-69 -11 -8 -28 -30 -35 -49 -19 -44 -55 -61 -96 -45 -40 15 -51 8 -86 -59 -30
-57 -45 -78 -99 -134 -18 -19 -33 -43 -33 -53 0 -11 -7 -25 -15 -32 -9 -7 -13
-21 -10 -31 4 -11 3 -19 -2 -19 -18 0 -75 42 -80 58 -3 9 -18 28 -35 41 -25
20 -33 22 -55 12 -23 -11 -31 -9 -69 18 -23 17 -49 31 -56 31 -21 0 -29 11
-18 24 6 9 -12 12 -66 12 -41 1 -74 -3 -74 -7 0 -5 -14 -9 -30 -9 -17 0 -44
-7 -59 -15 -37 -18 -81 -7 -165 43 -33 21 -74 42 -91 47 -42 14 -39 39 5 43
23 3 38 -2 46 -13 8 -11 20 -14 38 -9 36 9 39 18 21 54 -13 25 -22 31 -43 29
-15 -1 -34 0 -42 3 -62 21 -133 38 -157 37 -49 -2 -167 19 -203 36 l-35 16 60
-7 c119 -13 205 -9 205 11 0 24 -36 38 -54 20 -18 -18 -32 -19 -40 -2 -5 9 -7
9 -12 0 -7 -16 -31 -17 -36 -3 -2 6 -17 12 -33 13 -31 2 -38 22 -8 22 28 0 26
22 -8 87 -17 35 -39 79 -48 98 -9 19 -18 37 -21 40 -13 14 -56 103 -106 223
-30 72 -63 150 -73 172 -10 22 -28 66 -41 98 -17 41 -29 57 -43 57 -14 0 -17
-5 -11 -22 4 -13 11 -26 17 -29 5 -4 7 -11 4 -15 -9 -15 42 -188 58 -200 8 -6
15 -17 15 -24 0 -10 3 -10 15 0 12 10 15 9 15 -8 0 -11 -5 -22 -12 -24 -9 -3
-9 -15 1 -51 8 -25 10 -62 7 -80 -5 -28 -3 -35 12 -39 14 -4 22 -21 31 -66 12
-62 30 -82 51 -56 7 8 8 14 3 14 -11 0 -53 126 -53 160 l0 23 20 -26 c11 -14
20 -31 20 -38 0 -7 6 -20 14 -28 8 -9 24 -40 35 -70 23 -61 16 -81 -25 -81
-13 0 -24 -4 -24 -10 0 -5 -4 -10 -10 -10 -5 0 -10 6 -10 14 0 17 -61 40 -104
41 -16 0 -31 6 -33 13 -3 7 4 12 16 12 12 0 21 2 21 4 0 13 -13 36 -21 36 -4
0 -6 -7 -3 -15 4 -10 0 -15 -15 -15 -19 0 -20 -3 -11 -21 13 -23 13 -22 -17
-38 -30 -15 -33 -14 -33 12 0 13 -9 26 -24 33 -23 11 -24 10 -13 -7 9 -15 8
-22 -5 -36 -10 -9 -21 -13 -25 -9 -5 5 -2 11 5 13 24 9 12 25 -14 19 -20 -5
-25 -4 -21 6 3 9 -3 14 -14 15 -11 1 -19 -5 -19 -13 0 -8 -4 -14 -10 -14 -18
0 -10 -18 10 -23 43 -11 4 -57 -49 -57 -15 0 -17 6 -11 50 4 28 3 53 -2 56 -4
3 -8 18 -8 35 0 16 -5 29 -11 29 -5 0 -8 4 -4 10 3 5 11 7 18 4 8 -3 13 6 14
23 0 16 -1 20 -4 10 -4 -17 -6 -17 -21 4 -9 13 -17 30 -18 39 -1 8 -6 26 -10
39 -6 20 -4 23 9 18 21 -8 22 6 2 23 -8 7 -15 22 -15 34 0 12 -5 27 -12 34 -9
9 -7 12 9 12 26 0 37 15 28 38 -6 16 -7 16 -20 -1 -8 -11 -23 -17 -37 -15 -25
3 -24 12 -15 -122 5 -80 13 -99 37 -93 19 5 41 -18 22 -25 -16 -5 -2 -74 20
-92 17 -14 17 -17 -2 -58 -13 -30 -25 -43 -37 -41 -26 3 -53 -11 -53 -28 0 -8
-9 -28 -20 -43 l-20 -28 20 5 c11 3 20 0 20 -6 0 -6 -6 -11 -13 -11 -7 0 -18
-9 -25 -20 -7 -12 -8 -20 -2 -20 6 0 0 -16 -12 -35 -25 -37 -38 -44 -38 -19 0
8 -4 12 -10 9 -5 -3 -10 1 -10 10 0 27 -18 7 -25 -28 -11 -56 -16 -67 -30 -67
-8 0 -12 -11 -11 -29 2 -37 13 -50 22 -25 7 19 38 54 49 54 3 0 5 -11 5 -25 0
-14 4 -25 9 -25 5 0 16 -3 25 -6 12 -5 16 0 16 17 0 16 3 20 8 11 6 -9 12 -6
20 13 6 14 16 25 22 25 7 0 8 6 0 19 -13 25 -13 34 0 26 6 -4 17 -1 25 5 11 9
15 9 15 1 0 -6 -4 -11 -9 -11 -5 0 -8 -40 -7 -90 3 -75 1 -92 -14 -105 -12
-11 -20 -13 -25 -6 -3 6 -32 11 -63 11 -66 0 -205 33 -210 49 -2 6 -17 11 -34
11 -17 0 -48 5 -69 11 -36 11 -38 14 -48 74 -19 106 -11 172 18 159 9 -4 29
-9 44 -12 19 -3 26 -9 23 -18 -3 -8 -1 -14 5 -14 6 0 8 -9 4 -19 -5 -16 -2
-18 15 -14 28 7 33 19 35 75 2 45 1 47 -15 33 -15 -14 -18 -13 -28 10 -16 35
-33 32 -26 -4 l6 -30 -36 11 c-20 6 -36 15 -36 19 0 4 -13 12 -30 18 -31 10
-43 37 -12 27 15 -5 17 2 14 84 -3 87 18 211 37 218 5 2 6 23 3 48 -4 40 -2
46 17 51 14 4 21 14 22 32 1 24 1 24 10 -6 5 -18 15 -32 21 -30 8 1 13 -19 16
-63 4 -81 9 -101 22 -80 10 17 7 151 -5 170 -5 9 -2 10 11 6 16 -5 19 0 21 37
2 31 0 37 -7 22 -8 -19 -9 -18 -10 5 -2 15 -4 19 -7 9 -3 -11 -12 -15 -28 -11
-25 4 -33 26 -15 37 6 3 10 29 10 57 0 39 3 49 14 45 24 -9 47 17 53 61 4 29
11 42 22 43 9 1 30 3 48 5 46 5 63 -30 44 -90 -6 -17 -12 -88 -15 -159 -3 -70
-8 -133 -13 -140 -9 -14 -13 -110 -6 -149 9 -57 23 -26 20 45 -2 39 0 79 4 89
5 9 11 40 13 70 3 37 9 52 18 50 7 -2 6 4 -5 16 -14 15 -15 25 -8 45 5 14 15
28 20 32 8 4 8 12 1 25 -6 11 -8 31 -4 45 3 14 7 40 8 58 2 30 4 32 41 33 22
0 45 -3 52 -8 6 -5 15 -45 19 -89 5 -64 11 -83 27 -94 23 -16 37 -11 19 7 -15
15 -16 130 0 146 9 9 14 45 18 136 0 4 12 6 26 3 18 -3 33 2 45 14 11 11 32
19 48 19 16 0 31 5 33 11 3 8 18 4 46 -10 33 -17 42 -26 37 -40 -4 -12 2 -21
19 -29 21 -9 27 -8 40 13 22 33 20 56 -4 62 -11 3 -20 14 -20 25 0 30 32 18
44 -18 9 -26 15 -29 36 -24 38 9 37 44 -3 105 -24 36 -44 54 -62 57 -19 4 -23
2 -16 -5 19 -19 13 -39 -11 -35 -16 2 -23 10 -23 25 0 11 -3 25 -7 29 -16 15
-8 44 11 44 26 0 37 18 39 71 2 42 0 47 -22 51 -13 3 -31 1 -40 -4 -23 -13
-34 -2 -28 28 3 15 14 29 29 35 24 9 24 10 9 34 -10 15 -12 26 -6 30 6 3 10 2
10 -2 0 -5 9 -9 20 -9 12 0 23 10 29 28 6 15 15 28 21 28 23 0 3 23 -29 34
-41 14 -71 59 -55 84 15 23 73 40 83 23 11 -16 7 48 -3 72 -5 9 -13 17 -20 17
-6 0 -22 12 -35 26 -20 21 -22 28 -13 50 7 13 18 27 25 30 21 8 62 -12 104
-50 21 -19 45 -35 53 -36 28 -5 77 12 77 25 0 20 64 91 95 105 22 10 33 9 59
-4 41 -20 53 -20 45 0 -4 11 -2 15 8 11 21 -8 -12 52 -43 79 -14 12 -84 79
-154 147 -115 113 -127 128 -117 146 13 25 12 25 92 5 68 -17 109 -36 147 -65
30 -24 50 -24 58 -1 3 9 15 37 25 60 11 24 17 51 14 59 -4 10 9 32 34 59 31
34 40 52 40 79 0 30 5 39 35 56 25 15 35 28 35 45 0 26 39 69 71 79 12 4 19
16 19 32 0 14 7 56 16 93 l17 69 76 19 c42 11 99 20 126 20 28 1 67 8 87 16
41 18 118 22 118 7 0 -18 -44 -41 -77 -41 -33 0 -76 -27 -67 -42 9 -15 153 -9
184 7 17 9 30 13 30 10 0 -3 12 3 27 12 15 10 24 12 20 6 -6 -9 -2 -13 10 -13
27 0 47 16 38 30 -5 8 -4 11 3 6 6 -3 13 -2 17 4 3 5 21 10 38 10 18 0 53 8
79 17 47 17 48 17 68 -6 16 -20 26 -23 59 -17 28 4 42 2 51 -9 7 -8 23 -15 36
-15 13 0 24 -4 24 -10 0 -5 -4 -10 -10 -10 -5 0 -10 -6 -10 -13 0 -8 -17 -13
-51 -15 -35 -1 -48 1 -43 9 4 7 1 10 -7 7 -8 -3 -20 -15 -26 -29 -24 -47 21
-57 152 -32 24 4 27 2 18 -7 -18 -19 -4 -40 28 -40 40 0 106 35 114 61 4 11
23 36 43 55 30 28 44 34 70 31 30 -3 39 3 77 47 35 42 45 64 58 123 8 40 22
84 31 98 20 31 58 33 93 5z m-7091 -1 c10 -17 -13 -36 -27 -22 -12 12 -4 33
11 33 5 0 12 -5 16 -11z m1274 -10 c0 -5 -4 -9 -10 -9 -5 0 -10 7 -10 16 0 8
5 12 10 9 6 -3 10 -10 10 -16z m-150 -7 c0 -5 -7 -9 -15 -9 -8 0 -15 4 -15 9
0 4 7 8 15 8 8 0 15 -4 15 -8z m-1384 -79 c-12 -12 -29 15 -21 34 7 17 8 16
18 -5 5 -12 7 -25 3 -29z m1654 32 c0 -8 -4 -15 -10 -15 -5 0 -10 7 -10 15 0
8 5 15 10 15 6 0 10 -7 10 -15z m3441 -12 c-8 -15 -10 -15 -11 -2 0 17 10 32
18 25 2 -3 -1 -13 -7 -23z m-3591 -9 c0 -8 -4 -14 -9 -14 -11 0 -22 26 -14 34
9 9 23 -3 23 -20z m-1375 -5 c4 -6 5 -12 2 -15 -7 -7 -37 7 -37 17 0 13 27 11
35 -2z m109 -4 c11 -8 29 -15 40 -15 33 0 118 -45 146 -75 22 -25 23 -27 5
-21 -11 5 -25 9 -31 10 -7 1 -19 8 -27 14 -8 7 -30 14 -49 15 -43 3 -117 53
-118 80 0 11 13 8 34 -8z m4821 -6 c4 -6 -2 -19 -14 -30 -16 -15 -21 -16 -21
-5 0 37 21 58 35 35z m-3415 -115 c0 -8 -4 -12 -10 -9 -5 3 -10 10 -10 16 0 5
5 9 10 9 6 0 10 -7 10 -16z m517 10 c12 -3 24 -12 27 -20 4 -12 2 -12 -15 -4
-11 6 -39 15 -62 20 l-42 8 35 1 c19 0 45 -2 57 -5z m-767 -19 c0 -8 -4 -15
-10 -15 -5 0 -10 7 -10 15 0 8 5 15 10 15 6 0 10 -7 10 -15z m-560 -15 c-6
-11 -13 -20 -16 -20 -2 0 0 9 6 20 6 11 13 20 16 20 2 0 0 -9 -6 -20z m937
-26 c-9 -9 -28 6 -21 18 4 6 10 6 17 -1 6 -6 8 -13 4 -17z m2553 16 c0 -5 -7
-7 -15 -4 -8 4 -15 8 -15 10 0 2 7 4 15 4 8 0 15 -4 15 -10z m-3920 -16 c0
-17 -22 -14 -28 4 -2 7 3 12 12 12 9 0 16 -7 16 -16z m3835 6 c-4 -6 6 -10 23
-10 19 0 35 -8 45 -22 12 -18 18 -20 25 -10 7 10 14 8 32 -8 12 -11 27 -17 31
-14 5 3 12 -1 15 -10 3 -8 18 -18 34 -21 16 -3 31 -13 34 -21 3 -9 12 -14 19
-11 18 6 47 -11 47 -28 0 -8 -8 -15 -17 -15 -15 -1 -14 -4 6 -21 31 -25 22
-33 -23 -21 -21 6 -36 7 -36 1 0 -5 5 -9 10 -9 6 0 10 -3 10 -7 0 -5 -42 -8
-94 -8 -71 -1 -90 2 -79 10 13 10 13 15 2 34 -11 16 -20 20 -38 16 -15 -4 -28
-1 -33 7 -7 9 -8 6 -5 -9 3 -15 0 -23 -8 -23 -8 0 -18 -6 -22 -14 -4 -7 -21
-15 -36 -18 -21 -4 -30 0 -38 14 -6 12 -19 18 -32 16 -18 -2 -23 -11 -25 -48
-2 -28 -12 -57 -28 -77 -39 -51 -28 -88 21 -74 36 9 86 -15 63 -31 -9 -6 -8
-8 7 -7 38 3 55 -1 55 -12 0 -7 -9 -9 -21 -6 -19 5 -19 4 -6 -11 19 -22 47
-78 57 -114 14 -47 -7 -93 -74 -163 -46 -48 -78 -95 -124 -185 -34 -67 -62
-123 -62 -126 0 -2 13 2 30 11 46 24 79 20 90 -11 24 -61 27 -101 13 -134 -18
-44 -13 -55 27 -55 26 0 37 -6 47 -25 14 -29 8 -39 -52 -77 -28 -17 -50 -42
-65 -72 -15 -32 -24 -41 -30 -31 -4 7 -6 19 -3 27 3 7 -1 13 -10 13 -15 0 -87
-89 -87 -107 0 -6 -10 -23 -22 -38 -11 -15 -27 -43 -34 -64 -7 -20 -13 -28
-14 -18 0 17 -5 18 -100 23 -74 3 -74 4 -63 15 6 6 46 11 89 12 l79 2 -3 30
c-2 17 2 34 11 40 22 16 33 46 36 94 2 29 -1 41 -8 37 -6 -4 -11 -21 -11 -37
0 -17 -4 -28 -9 -24 -10 5 -6 140 4 167 4 9 2 19 -4 23 -7 4 -11 -3 -11 -16 0
-45 -21 -3 -27 53 -4 43 -2 58 12 72 21 20 33 13 15 -9 -8 -10 -10 -27 -5 -52
4 -21 10 -32 12 -25 10 27 22 10 28 -40 4 -29 13 -66 21 -83 l14 -30 -6 43
c-4 33 -3 42 9 42 10 0 14 11 13 37 -1 29 4 40 20 47 12 6 24 25 31 50 5 23
13 48 17 58 6 12 0 18 -24 23 -24 5 -32 13 -37 35 -5 29 -35 50 -41 31 -6 -17
-32 -13 -32 4 0 9 10 15 23 16 12 0 16 3 9 6 -7 3 -17 16 -22 29 -6 14 -18 24
-29 24 -21 0 -26 10 -36 77 -5 31 -1 51 14 81 11 21 25 60 32 86 6 25 24 63
40 83 16 19 29 40 29 46 0 22 -52 97 -83 119 -17 12 -40 30 -50 38 -17 14 -16
15 9 20 18 3 34 17 47 40 10 19 24 38 31 43 20 13 -16 28 -54 22 -60 -10 -70
-16 -71 -38 -3 -47 -5 -52 -22 -55 -10 -2 -29 3 -42 12 -33 22 -23 54 19 58
23 2 31 8 32 23 1 11 2 27 3 36 0 9 21 27 45 39 42 23 45 23 78 7 20 -9 41
-23 48 -32 15 -18 37 -19 73 -2 26 11 27 16 25 66 -3 53 -4 55 -36 63 -20 6
-38 5 -45 -1 -7 -5 -33 -12 -60 -16 -55 -9 -78 4 -76 44 1 21 2 22 6 6 8 -31
16 -32 112 -20 82 10 90 10 100 -7 11 -17 42 -26 40 -10 -5 30 2 43 21 37 11
-3 20 -2 20 4 0 5 -10 12 -22 15 -13 2 -6 4 14 2 21 -1 40 3 42 9 3 5 2 -3 -1
-19 -4 -22 -2 -27 8 -24 8 3 13 15 11 26 -2 15 2 22 13 22 11 0 14 6 9 25 -5
22 -3 25 21 25 15 0 24 -4 20 -10z m-3995 -21 c0 -6 -4 -7 -10 -4 -5 3 -10 11
-10 16 0 6 5 7 10 4 6 -3 10 -11 10 -16z m4670 -8 c10 -19 10 -22 -1 -16 -9 6
-11 3 -6 -8 3 -9 0 -20 -7 -24 -7 -5 -15 -16 -19 -25 -3 -10 -11 -18 -17 -18
-17 0 -1 92 18 107 8 7 16 12 17 10 1 -1 8 -13 15 -26z m-4133 -28 c-3 -10 -5
-2 -5 17 0 19 2 27 5 18 2 -10 2 -26 0 -35z m-713 16 c-3 -5 -10 -7 -15 -3 -5
3 -7 10 -3 15 3 5 10 7 15 3 5 -3 7 -10 3 -15z m1789 14 c4 -3 2 -12 -4 -20
-9 -10 -8 -13 0 -13 7 0 9 -4 6 -10 -12 -20 -25 -9 -25 20 0 29 9 38 23 23z
m-1383 -17 c0 -9 -73 -76 -82 -76 -6 0 -7 -7 -4 -16 3 -9 6 -19 6 -23 0 -5 19
-21 43 -36 42 -28 217 -202 217 -216 0 -24 -23 -13 -63 29 -25 26 -74 70 -110
97 -36 28 -72 64 -80 81 -14 29 -20 32 -81 39 -36 3 -70 4 -75 0 -6 -3 -15 3
-20 14 -14 25 -14 31 0 31 7 0 22 11 35 25 36 39 71 43 101 11 26 -28 46 -29
23 -1 -16 20 -9 26 37 35 52 10 53 11 53 6z m-365 -90 c22 -46 24 -58 13 -75
-9 -15 -19 -18 -41 -14 -19 4 -32 1 -38 -8 -7 -11 -9 -11 -9 2 0 18 -20 29
-51 29 -12 0 -21 9 -25 27 -8 31 15 53 57 53 19 0 30 6 34 20 11 35 34 22 60
-34z m1728 -18 c28 -4 33 -25 7 -33 -14 -5 -19 -12 -15 -24 6 -20 -29 -71 -50
-71 -8 0 -11 -7 -8 -20 3 -11 1 -20 -3 -20 -5 0 -15 -13 -22 -30 -8 -16 -18
-30 -22 -30 -5 0 -20 22 -33 50 -13 27 -27 47 -30 43 -4 -3 -13 0 -21 6 -11
10 -17 8 -30 -10 -13 -20 -16 -20 -22 -6 -7 18 -34 24 -34 7 0 -5 6 -10 14
-10 7 0 19 -7 26 -15 6 -8 15 -13 18 -12 14 4 51 -30 61 -56 14 -37 -4 -77
-35 -77 -16 0 -25 9 -33 31 -13 38 -13 42 -2 35 4 -3 6 6 3 20 -3 19 -7 22
-18 13 -8 -6 -14 -23 -14 -37 0 -14 -7 -34 -17 -44 -18 -20 -73 -25 -73 -6 0
6 -3 8 -6 5 -4 -4 -1 -13 5 -21 30 -35 -36 -48 -73 -14 -18 16 -18 18 -1 44
14 21 16 38 11 85 -5 37 -3 59 3 59 15 0 61 49 61 64 0 18 78 86 100 86 10 0
24 2 32 5 8 3 18 -7 26 -25 19 -43 37 -37 52 16 8 29 17 43 26 40 7 -3 15 2
18 10 4 11 14 6 42 -20 21 -19 46 -36 57 -38z m277 8 c-13 -13 -35 7 -25 24 5
8 11 8 21 -1 10 -8 12 -15 4 -23z m2750 -5 c0 -6 -4 -13 -10 -16 -5 -3 -10
-15 -10 -26 0 -10 -16 -39 -35 -65 -19 -25 -35 -50 -35 -55 0 -5 -4 -9 -9 -9
-5 0 -9 20 -9 45 -1 25 3 45 8 45 6 0 10 9 10 20 0 11 8 24 18 27 9 4 26 15
36 25 22 20 36 23 36 9z m-2625 -71 c-3 -6 -1 -10 4 -10 14 0 14 -57 1 -65 -5
-3 -10 2 -10 12 0 10 -6 27 -14 38 -10 14 -11 27 -4 45 8 23 10 23 19 7 6 -9
7 -22 4 -27z m2343 33 c-10 -2 -26 -2 -35 0 -10 3 -2 5 17 5 19 0 27 -2 18 -5z
m-4410 -47 c3 -12 -1 -17 -10 -14 -7 3 -15 13 -16 22 -3 12 1 17 10 14 7 -3
15 -13 16 -22z m4107 14 c3 -5 -1 -10 -10 -10 -9 0 -13 5 -10 10 3 6 8 10 10
10 2 0 7 -4 10 -10z m-2311 -23 c14 -10 15 -18 7 -40 -6 -15 -13 -27 -17 -27
-3 0 -4 6 -1 14 3 8 -1 17 -9 20 -15 6 -20 46 -6 46 5 0 16 -6 26 -13z m206 3
c0 -5 -4 -10 -10 -10 -5 0 -10 5 -10 10 0 6 5 10 10 10 6 0 10 -4 10 -10z
m2016 -47 c-11 -11 -19 6 -11 24 8 17 8 17 12 0 3 -10 2 -21 -1 -24z m-3509
-15 c-3 -8 -6 -5 -6 6 -1 11 2 17 5 13 3 -3 4 -12 1 -19z m3583 -8 c0 -5 -4
-10 -10 -10 -5 0 -10 5 -10 10 0 6 5 10 10 10 6 0 10 -4 10 -10z m55 -29 c-3
-6 -11 -8 -17 -5 -6 4 -5 9 3 15 16 10 23 4 14 -10z m78 -6 c-3 -9 -8 -14 -10
-11 -3 3 -2 9 2 15 9 16 15 13 8 -4z m-113 -15 c0 -5 -7 -10 -16 -10 -8 0 -12
5 -9 10 3 6 10 10 16 10 5 0 9 -4 9 -10z m-2318 -35 c0 -5 -5 -11 -11 -13 -6
-2 -11 4 -11 13 0 9 5 15 11 13 6 -2 11 -8 11 -13z m382 -75 l7 -35 -20 35
c-10 19 -17 39 -14 43 8 14 20 -5 27 -43z m-1775 18 c0 -7 -7 -29 -15 -48
l-14 -35 5 34 c3 18 5 40 5 47 0 8 5 14 10 14 6 0 10 -6 9 -12z m4128 -53
c-17 -50 -43 -62 -34 -16 7 36 40 86 45 67 1 -6 -4 -29 -11 -51z m-2771 42 c2
-7 -2 -27 -11 -43 -8 -16 -15 -24 -15 -18 0 6 -3 26 -6 43 -5 25 -3 31 10 31
9 0 19 -6 22 -13z m-1796 -27 c0 -5 -2 -10 -4 -10 -3 0 -8 5 -11 10 -3 6 -1
10 4 10 6 0 11 -4 11 -10z m1501 -6 c12 -14 11 -16 -5 -13 -11 2 -21 10 -24
17 -5 17 13 15 29 -4z m2146 -22 c11 -6 26 -18 33 -28 12 -14 12 -18 -5 -30
-10 -8 -24 -14 -31 -14 -19 0 -74 59 -74 80 0 16 4 17 29 10 15 -4 37 -13 48
-18z m-3337 14 c0 -3 -4 -8 -10 -11 -5 -3 -10 -1 -10 4 0 6 5 11 10 11 6 0 10
-2 10 -4z m-200 -16 c0 -5 -4 -10 -10 -10 -5 0 -10 5 -10 10 0 6 5 10 10 10 6
0 10 -4 10 -10z m1381 -26 c11 -14 10 -15 -11 -12 -13 1 -25 9 -28 16 -5 17
23 15 39 -4z m-1118 -22 c23 -24 26 -32 18 -60 -15 -51 -20 -54 -52 -32 -31
23 -35 40 -18 89 13 38 18 38 52 3z m3768 1 c-12 -20 -14 -14 -5 12 4 9 9 14
11 11 3 -2 0 -13 -6 -23z m-3734 -5 c-3 -8 -6 -5 -6 6 -1 11 2 17 5 13 3 -3 4
-12 1 -19z m-427 -14 c0 -17 -22 -14 -28 4 -2 7 3 12 12 12 9 0 16 -7 16 -16z
m1591 -7 c-1 -12 -15 -9 -19 4 -3 6 1 10 8 8 6 -3 11 -8 11 -12z m659 -54 c0
-58 -11 -49 -18 13 -3 33 -1 45 7 40 6 -4 11 -28 11 -53z m-162 5 c2 -10 -9
-20 -29 -27 -56 -19 -67 -13 -29 19 37 31 53 33 58 8z m-198 -33 c0 -8 -7 -15
-15 -15 -8 0 -15 7 -15 15 0 8 7 15 15 15 8 0 15 -7 15 -15z m-520 -14 c0 -12
-20 -25 -27 -18 -7 7 6 27 18 27 5 0 9 -4 9 -9z m460 -5 c0 -8 -6 -16 -14 -19
-10 -4 -12 0 -9 14 6 22 23 26 23 5z m-127 -20 c3 3 15 -4 28 -17 l22 -22 -23
6 c-25 7 -59 -25 -60 -55 0 -11 -8 -18 -20 -18 -21 0 -27 15 -10 25 6 3 10 23
10 44 0 45 7 54 30 41 10 -5 20 -7 23 -4z m221 -2 c8 -20 -1 -34 -20 -34 -15
0 -17 9 -8 34 8 20 20 20 28 0z m2586 9 c-1 -23 -42 -139 -53 -148 -7 -5 -28
-35 -47 -65 -51 -81 -137 -173 -163 -176 -7 -1 -19 -2 -27 -3 -12 -1 -13 -3
-1 -10 8 -5 11 -16 6 -30 -8 -25 -25 -28 -25 -5 0 10 -6 14 -15 10 -21 -8 -19
0 11 39 17 23 31 32 41 28 10 -4 14 -2 9 5 -3 6 5 27 19 48 14 20 25 32 25 25
0 -6 5 -11 11 -11 6 0 8 7 5 16 -7 19 23 124 36 124 4 0 10 0 13 0 3 0 24 21
47 47 24 26 49 54 56 61 6 7 17 22 22 33 10 19 30 26 30 12z m-2250 -58 c0
-11 -5 -27 -10 -35 -7 -11 -10 -5 -10 23 0 20 -4 37 -10 37 -5 0 -10 5 -10 10
0 6 8 5 20 -2 11 -7 20 -22 20 -33z m-443 -1 c7 -20 -17 -37 -34 -23 -15 13
-6 39 13 39 8 0 17 -7 21 -16z m171 -37 c2 -10 -3 -17 -12 -17 -18 0 -29 16
-21 31 9 14 29 6 33 -14z m-29 -69 c17 -18 31 -38 31 -44 0 -15 -25 -36 -33
-28 -4 4 -11 -5 -16 -20 -6 -14 -15 -26 -21 -26 -5 0 -10 -7 -10 -16 0 -9 -7
-14 -17 -12 -10 2 -23 -3 -29 -11 -7 -9 -13 -10 -18 -3 -3 6 2 18 11 28 9 9
18 23 19 31 2 9 13 26 26 40 21 23 22 25 5 34 -20 12 -22 30 -5 47 18 18 24
15 57 -20z m5936 12 c3 -5 -1 -10 -10 -10 -9 0 -13 5 -10 10 3 6 8 10 10 10 2
0 7 -4 10 -10z m-5835 -16 c0 -8 -5 -12 -10 -9 -6 4 -8 11 -5 16 9 14 15 11
15 -7z m2446 -103 c-2 -48 -6 -76 -14 -79 -7 -2 -10 -8 -6 -13 3 -5 1 -9 -5
-9 -5 0 -13 9 -16 20 -9 30 -2 173 10 186 19 22 33 -26 31 -105z m-4396 74
c16 -19 3 -40 -16 -24 -15 13 -19 39 -5 39 5 0 14 -7 21 -15z m1428 2 c14 1
21 -4 17 -11 -3 -6 -8 -19 -11 -28 -3 -9 -20 -22 -38 -29 -52 -20 -59 -19 -40
2 11 12 17 33 16 51 -2 26 0 29 15 23 10 -5 28 -8 41 -8z m292 -33 c0 -20 -30
-30 -40 -13 -11 17 7 40 26 32 8 -3 14 -12 14 -19z m320 1 c0 -8 -7 -15 -15
-15 -8 0 -15 7 -15 15 0 8 7 15 15 15 8 0 15 -7 15 -15z m150 -2 c-1 -10 -7
-31 -14 -48 l-14 -30 1 47 c1 31 6 48 15 48 6 0 12 -8 12 -17z m5726 -11 c-17
-16 -18 -16 -5 5 7 12 15 20 18 17 3 -2 -3 -12 -13 -22z m-3857 1 c-11 -19
-59 -58 -59 -49 0 5 63 66 68 66 1 0 -3 -8 -9 -17z m-4115 -19 c27 -10 18 -22
-23 -29 -35 -6 -42 -12 -58 -51 -21 -50 -34 -55 -58 -18 -16 24 -16 26 2 40
10 7 26 14 36 14 9 0 17 4 17 8 0 6 41 32 67 41 1 1 8 -2 17 -5z m2620 -47
c27 -35 66 -120 66 -143 0 -7 -12 -16 -27 -20 -16 -3 -41 -12 -58 -19 -16 -7
-42 -17 -57 -20 -34 -9 -37 9 -12 61 11 23 15 48 11 75 -7 52 9 99 33 99 11 0
30 -15 44 -33z m-634 13 c0 -5 -2 -10 -4 -10 -3 0 -8 5 -11 10 -3 6 -1 10 4
10 6 0 11 -4 11 -10z m-645 -40 c-3 -5 -10 -10 -16 -10 -5 0 -9 5 -9 10 0 6 7
10 16 10 8 0 12 -4 9 -10z m845 -41 c-7 -11 -14 -18 -17 -15 -3 3 0 12 7 21
18 21 23 19 10 -6z m2346 -11 c-21 -12 -42 4 -32 21 5 8 13 8 28 0 20 -11 20
-12 4 -21z m-3206 -20 c0 -10 -11 -10 -29 1 -9 6 -11 16 -7 27 7 18 8 18 22 0
8 -11 14 -23 14 -28z m150 17 c16 -20 1 -38 -23 -29 -17 6 -22 25 -10 37 10
11 19 8 33 -8z m188 3 c-6 -18 -25 -20 -31 -3 -5 10 0 15 14 15 12 0 19 -5 17
-12z m104 -5 c10 -12 8 -18 -12 -34 -53 -42 -100 -47 -80 -9 5 10 10 27 10 37
0 15 8 19 35 20 19 1 40 -5 47 -14z m-106 -35 c4 -6 2 -14 -4 -16 -19 -6 -14
-36 8 -55 23 -19 24 -26 10 -47 -9 -13 -12 -12 -25 4 -8 11 -15 26 -15 33 0 7
-4 13 -8 13 -4 0 -15 13 -25 29 -16 27 -16 29 6 39 30 14 44 14 53 0z m1268
-29 c17 -28 17 -32 3 -47 -15 -14 -17 -13 -27 12 -5 15 -23 33 -40 40 -36 15
-29 26 15 26 24 0 35 -7 49 -31z m-1054 -24 c-7 -8 -16 -15 -21 -15 -14 0 -10
17 8 36 20 20 32 1 13 -21z m2213 -5 c-18 -17 -35 -30 -38 -30 -14 0 41 59 55
59 9 1 3 -11 -17 -29z m587 1 c0 -6 -4 -13 -10 -16 -5 -3 -10 1 -10 9 0 9 5
16 10 16 6 0 10 -4 10 -9z m-3050 -56 c0 -19 -27 -37 -47 -33 -25 5 -28 34 -4
41 15 4 18 10 14 28 l-6 24 22 -24 c11 -13 21 -30 21 -36z m-299 10 c-1 -15
-24 -12 -29 3 -3 9 2 13 12 10 10 -1 17 -7 17 -13z m104 -41 c0 -13 -3 -24 -7
-24 -5 0 -12 0 -18 0 -5 0 -10 16 -10 35 0 31 2 34 18 24 10 -6 18 -22 17 -35z
m1705 11 c0 -16 -17 -19 -44 -9 -26 10 -18 24 14 24 20 0 30 -5 30 -15z m-894
-16 c3 -5 0 -17 -5 -26 -10 -17 -10 -17 -11 1 0 10 -8 25 -17 32 -16 12 -16
12 5 7 12 -3 25 -9 28 -14z m2295 -35 c12 -14 11 -16 -5 -13 -11 2 -21 10 -24
17 -5 17 13 15 29 -4z m-3327 -15 c-3 -5 -10 -7 -15 -3 -5 3 -7 10 -3 15 3 5
10 7 15 3 5 -3 7 -10 3 -15z m6631 11 c3 -5 1 -10 -4 -10 -6 0 -11 5 -11 10 0
6 2 10 4 10 3 0 8 -4 11 -10z m-6049 -47 c-10 -10 -19 5 -10 18 6 11 8 11 12
0 2 -7 1 -15 -2 -18z m1489 -3 c3 -5 2 -10 -4 -10 -5 0 -13 5 -16 10 -3 6 -2
10 4 10 5 0 13 -4 16 -10z m925 -21 c0 -5 -6 -9 -14 -9 -15 0 -28 24 -19 34 7
7 33 -13 33 -25z m760 11 c0 -5 -4 -10 -10 -10 -5 0 -10 5 -10 10 0 6 5 10 10
10 6 0 10 -4 10 -10z m-95 -45 c0 -12 -10 -22 -25 -26 -14 -4 -19 -7 -12 -8 6
-1 12 -6 12 -12 0 -17 -21 1 -30 27 -5 13 -7 30 -4 38 8 21 59 5 59 -19z
m3095 13 c19 -6 43 -17 52 -25 17 -15 17 -17 0 -29 -37 -29 -92 -12 -116 35
-17 31 -11 45 13 35 9 -3 32 -11 51 -16z m-6110 -28 c0 -11 -4 -20 -10 -20 -5
0 -10 2 -10 4 0 2 -3 11 -6 20 -4 11 -1 16 10 16 9 0 16 -8 16 -20z m140 0 c0
-5 -5 -12 -11 -16 -14 -8 -33 11 -25 25 7 11 36 4 36 -9z m215 -17 c-9 -39
-45 -113 -55 -113 -4 0 4 32 18 70 24 68 51 99 37 43z m1255 11 l25 -15 -30 6
c-16 4 -34 11 -39 16 -16 15 16 10 44 -7z m-2120 -11 c0 -16 -40 -27 -52 -15
-6 6 -8 15 -4 20 8 14 56 10 56 -5z m185 -13 c-5 -8 -11 -8 -17 -2 -6 6 -7 16
-3 22 5 8 11 8 17 2 6 -6 7 -16 3 -22z m3255 -20 c0 -5 -4 -10 -10 -10 -5 0
-10 5 -10 10 0 6 5 10 10 10 6 0 10 -4 10 -10z m-3070 -40 c0 -5 -7 -10 -16
-10 -8 0 -12 5 -9 10 3 6 10 10 16 10 5 0 9 -4 9 -10z m2140 -55 c-17 -20 -30
-9 -30 25 0 19 6 30 18 32 21 4 29 -36 12 -57z m-2650 15 c0 -5 -4 -10 -10
-10 -5 0 -10 5 -10 10 0 6 5 10 10 10 6 0 10 -4 10 -10z m3720 -36 c12 -31 13
-44 2 -44 -9 0 -32 44 -32 60 0 20 21 9 30 -16z m-2810 6 c0 -5 -5 -10 -11
-10 -5 0 -7 5 -4 10 3 6 8 10 11 10 2 0 4 -4 4 -10z m-990 -34 c0 -7 -12 -16
-27 -19 -34 -6 -40 -2 -23 18 16 19 50 20 50 1z m-1376 -38 c23 -35 29 -74 16
-98 -11 -20 -13 -21 -28 -6 -9 8 -17 30 -18 47 -1 18 -9 36 -18 41 -8 5 -13
15 -10 23 9 22 42 18 58 -7z m5061 -3 c0 -28 -29 -25 -33 3 -3 19 0 23 15 20
10 -2 18 -12 18 -23z m-4938 -1 c81 -9 82 -17 1 -12 -39 2 -73 10 -80 17 -11
11 -10 13 4 8 9 -3 43 -9 75 -13z m2290 -9 c-4 -8 -11 -15 -17 -15 -7 0 -7 6
0 21 13 23 26 19 17 -6z m1591 7 c3 -10 7 -10 18 -1 11 9 18 9 26 1 9 -9 7
-17 -7 -32 -13 -15 -16 -23 -8 -28 6 -4 13 -18 14 -32 3 -15 11 -25 21 -25 25
0 32 -12 30 -49 -4 -58 53 -90 80 -46 13 20 38 28 38 11 0 -5 -7 -14 -15 -21
-17 -14 -20 -40 -5 -40 6 0 10 -9 10 -19 0 -27 10 -51 22 -51 5 0 6 9 3 20 -6
19 -4 19 19 9 25 -12 35 -29 17 -29 -6 0 -7 -10 -4 -22 10 -35 4 -119 -8 -134
-9 -11 -7 -14 9 -14 13 0 22 8 26 23 3 12 3 0 0 -28 -6 -58 -6 -57 2 -114 5
-30 9 -39 15 -30 6 9 7 -3 3 -31 -4 -25 -10 -49 -13 -55 -4 -5 -5 -26 -1 -45
3 -23 8 -31 13 -22 5 6 5 17 2 22 -4 6 -2 25 4 43 17 51 21 111 9 118 -13 8 9
139 23 139 5 0 9 -9 9 -20 0 -21 7 -24 53 -21 49 2 77 28 76 70 -1 36 -1 36
-9 7 -21 -68 -67 -88 -107 -46 -21 22 -30 26 -40 18 -10 -8 -12 -7 -7 6 3 9 1
16 -5 16 -6 0 -11 5 -11 11 0 5 5 7 10 4 6 -4 10 8 10 27 0 19 5 39 12 46 7 7
13 22 13 35 0 24 42 50 79 48 11 0 49 -1 84 -1 55 0 62 -2 62 -20 0 -11 5 -20
10 -20 6 0 10 5 10 10 0 6 7 10 15 10 17 0 19 -18 5 -55 -8 -22 -15 -26 -34
-21 -22 5 -24 3 -24 -27 0 -19 -7 -55 -16 -81 -9 -25 -16 -65 -16 -86 0 -25
-5 -40 -12 -40 -18 0 -34 12 -39 29 -4 11 -8 10 -22 -3 -19 -19 -22 -36 -8
-36 11 0 5 -54 -12 -117 -12 -46 -26 -40 -27 12 0 44 -11 76 -22 69 -12 -7 -1
34 13 52 5 6 6 20 2 29 -6 16 -7 15 -15 -6 -7 -19 -11 -21 -18 -9 -5 8 -10 11
-11 5 0 -5 -4 -1 -9 10 -8 18 -9 17 -9 -7 -1 -15 5 -33 13 -41 15 -15 12 -55
-13 -182 -7 -40 -7 -52 5 -58 16 -9 19 -47 4 -47 -5 0 -10 -11 -10 -25 0 -30
-11 -32 -35 -5 -42 46 -60 144 -41 210 6 21 6 22 -4 7 -6 -9 -16 -15 -21 -11
-6 3 -7 -4 -3 -20 4 -16 2 -26 -5 -26 -6 0 -11 5 -11 10 0 6 -5 10 -10 10 -6
0 1 -22 15 -50 14 -27 25 -55 25 -62 -1 -7 -12 10 -27 37 -34 68 -60 93 -105
107 -22 6 -48 24 -59 39 -18 26 -19 28 -2 38 10 6 12 11 6 11 -7 0 -13 5 -13
11 0 6 -7 17 -15 25 -16 17 -20 72 -7 119 10 37 -10 206 -34 278 -19 60 -62
138 -81 150 -18 11 -17 41 1 34 7 -3 19 4 25 17 13 24 61 30 69 8z m-368 -18
c0 -8 -5 -12 -10 -9 -6 4 -8 11 -5 16 9 14 15 11 15 -7z m-240 -19 c0 -8 -7
-15 -15 -15 -8 0 -15 7 -15 15 0 8 7 15 15 15 8 0 15 -7 15 -15z m730 -49 c0
-8 -4 -18 -10 -21 -5 -3 -10 3 -10 14 0 12 5 21 10 21 6 0 10 -6 10 -14z
m-1802 -51 c-23 -34 -38 -45 -38 -25 0 8 50 60 57 60 2 0 -7 -16 -19 -35z
m2802 4 c0 -6 -4 -7 -10 -4 -5 3 -10 11 -10 16 0 6 5 7 10 4 6 -3 10 -11 10
-16z m-5142 -7 c2 -7 -2 -10 -12 -6 -9 3 -16 11 -16 16 0 13 23 5 28 -10z
m-24 -23 c-6 -11 -24 -2 -24 11 0 5 7 7 15 4 8 -4 12 -10 9 -15z m4236 11 c0
-19 -30 -70 -41 -70 -6 0 -9 9 -6 20 3 11 1 18 -4 14 -13 -8 -11 20 3 34 15
15 48 16 48 2z m-1924 -37 c-1 -1 -11 0 -23 3 -14 4 -20 11 -16 20 5 12 8 12
23 -3 10 -10 17 -19 16 -20z m-301 17 c8 -13 -5 -13 -25 0 -13 8 -13 10 2 10
9 0 20 -4 23 -10z m1815 -13 c0 -8 -3 -17 -7 -20 -9 -9 -34 13 -27 24 8 14 34
11 34 -4z m-1797 -26 c-5 -19 -46 -36 -63 -26 -4 3 -6 14 -3 25 4 15 14 20 38
20 28 0 32 -3 28 -19z m277 4 c0 -11 -112 -115 -123 -115 -7 0 17 27 53 60 66
61 70 64 70 55z m7434 -46 c30 -14 56 -90 56 -161 0 -57 -48 -116 -95 -119
-53 -2 -62 0 -99 30 -20 16 -50 33 -67 36 -21 5 -29 12 -29 28 0 51 100 165
161 184 46 15 45 15 73 2z m-5419 -47 c-11 -11 -27 17 -20 35 6 16 8 16 16 -6
5 -13 7 -26 4 -29z m51 0 c-18 -16 -19 -16 -12 1 3 10 6 24 6 30 0 8 4 7 12
-1 10 -9 8 -16 -6 -30z m2802 -34 c7 -7 12 -18 12 -26 0 -8 9 -27 20 -42 29
-41 8 -46 -43 -9 -24 17 -59 34 -77 38 -41 8 -53 31 -16 31 13 0 28 5 31 10 9
14 58 13 73 -2z m-3300 -40 c23 -48 30 -116 12 -128 -4 -3 -13 -15 -19 -28
-12 -22 -16 -23 -94 -18 -45 2 -89 7 -98 11 -10 3 -20 1 -24 -5 -5 -8 -10 -8
-20 0 -20 16 -7 40 22 40 13 0 22 4 19 8 -3 5 3 22 13 38 18 30 61 44 61 19 0
-9 12 -12 40 -11 49 3 67 17 45 36 -19 16 -19 25 1 44 21 21 29 20 42 -6z
m-3503 -27 c-3 -6 -11 -11 -17 -11 -6 0 -6 6 2 15 14 17 26 13 15 -4z m1740
-10 c3 -6 -4 -15 -15 -21 -19 -10 -20 -10 -8 9 15 24 15 24 23 12z m-2080 -69
c-6 -6 -54 51 -54 63 0 6 13 -5 29 -24 16 -19 28 -37 25 -39z m306 19 c-7 -5
-11 -13 -7 -19 3 -5 -1 -12 -9 -16 -18 -6 -19 -1 -5 25 6 10 16 19 23 19 8 0
8 -3 -2 -9z m1619 -1 c0 -5 -2 -10 -4 -10 -3 0 -8 5 -11 10 -3 6 -1 10 4 10 6
0 11 -4 11 -10z m5200 0 c0 -5 -7 -10 -15 -10 -8 0 -15 5 -15 10 0 6 7 10 15
10 8 0 15 -4 15 -10z m-6770 -20 c0 -5 -4 -10 -10 -10 -5 0 -10 5 -10 10 0 6
5 10 10 10 6 0 10 -4 10 -10z m3150 -12 c25 -28 26 -70 0 -93 -18 -16 -22 -16
-57 -2 -41 16 -52 41 -33 77 10 18 40 37 62 39 4 1 16 -9 28 -21z m-3495 -28
c10 -11 14 -20 9 -20 -5 0 -15 9 -22 20 -7 11 -11 20 -9 20 2 0 12 -9 22 -20z
m180 -10 c8 -13 -5 -13 -25 0 -13 8 -13 10 2 10 9 0 20 -4 23 -10z m-153 -52
c-8 -8 -9 -4 -5 13 4 13 8 18 11 10 2 -7 -1 -18 -6 -23z m52 -80 c-3 -5 0 -17
8 -26 35 -45 49 -92 27 -92 -6 0 -9 9 -6 20 7 26 -1 25 -30 -2 l-23 -22 3 23
c2 12 9 26 16 31 8 4 9 10 3 14 -5 3 -13 22 -16 42 -4 19 -10 43 -12 52 -4 12
1 9 15 -7 12 -12 18 -27 15 -33z m1716 42 c0 -5 -5 -10 -11 -10 -5 0 -7 5 -4
10 3 6 8 10 11 10 2 0 4 -4 4 -10z m-1824 -58 c-17 -4 -22 -32 -6 -32 6 0 10
5 10 11 0 5 5 7 10 4 6 -3 10 -14 10 -24 0 -14 -6 -17 -25 -13 -41 7 -54 42
-27 71 16 17 18 17 30 2 11 -13 10 -17 -2 -19z m1422 -34 c14 -9 29 -15 33
-12 4 2 10 0 14 -5 3 -6 26 -20 51 -32 25 -13 65 -43 89 -68 36 -36 42 -48 34
-63 -8 -16 -6 -18 21 -18 16 0 30 -5 30 -11 0 -5 4 -8 10 -4 5 3 7 12 4 19 -7
18 11 29 34 22 23 -8 44 -63 32 -86 -5 -9 -5 -21 -1 -26 5 -5 11 -21 15 -36 5
-21 3 -28 -8 -28 -8 0 -18 5 -21 10 -9 14 -58 13 -73 -2 -9 -9 -12 -9 -13 3 0
7 -4 4 -9 -8 -7 -17 -18 -23 -38 -23 -21 0 -32 -7 -40 -24 -6 -14 -26 -29 -46
-36 -20 -6 -36 -18 -36 -26 0 -9 -5 -12 -12 -8 -10 5 -10 4 -2 -5 9 -10 17
-10 33 -2 12 7 21 16 21 21 0 6 7 10 15 10 8 0 15 4 15 9 0 5 14 12 30 16 17
4 30 10 30 13 0 8 49 32 64 32 6 0 3 -5 -6 -11 -21 -12 -25 -44 -4 -36 10 4
12 0 8 -16 -2 -12 -9 -28 -15 -34 -5 -7 -7 -20 -3 -28 3 -8 0 -15 -6 -15 -7 0
-8 14 -4 40 5 32 3 38 -8 34 -8 -3 -18 -13 -21 -22 -6 -15 -8 -15 -16 3 -8 16
-8 15 -4 -8 3 -15 15 -37 26 -48 23 -23 18 -36 -18 -50 -18 -6 -30 -6 -39 2
-10 8 -14 8 -14 0 0 -6 -9 -11 -21 -11 -11 0 -18 -4 -15 -9 3 -5 15 -7 26 -4
14 4 20 0 20 -11 0 -12 -9 -16 -34 -16 -33 0 -55 -13 -39 -23 5 -2 2 -2 -4 -1
-7 2 -13 -4 -13 -12 0 -8 -4 -13 -9 -9 -5 3 -13 0 -16 -5 -5 -7 -12 -5 -22 7
-14 17 -14 17 -10 -4 4 -15 0 -23 -9 -23 -8 0 -14 5 -14 11 0 6 -7 9 -15 5
-17 -6 -15 10 12 97 16 48 12 70 -8 50 -13 -13 -81 19 -120 56 -17 16 -25 18
-31 9 -6 -10 -8 -9 -8 2 0 15 -45 65 -85 96 -11 9 -14 13 -7 9 7 -3 12 0 12 8
0 9 20 18 55 26 30 7 53 17 49 22 -3 5 -10 7 -15 4 -5 -4 -9 -1 -9 4 0 6 12
11 26 11 30 0 126 31 135 43 3 5 16 -4 27 -20 28 -37 29 -11 2 42 -11 22 -20
45 -20 51 0 7 -7 14 -15 18 -8 3 -15 13 -15 23 0 15 2 16 10 3 7 -11 10 -5 10
23 0 30 4 37 19 37 34 0 32 16 -4 33 l-34 16 -4 -27 c-4 -25 -4 -25 -6 5 0 20
-10 38 -26 51 -35 27 -19 36 17 9 16 -12 41 -30 56 -39z m5466 43 c7 -11 -22
-23 -35 -15 -5 3 -7 10 -4 15 8 12 32 12 39 0z m-5556 -26 c15 -14 22 -25 16
-25 -7 0 -14 -11 -16 -25 -6 -28 8 -35 15 -7 4 16 4 16 12 -2 5 -11 3 -21 -5
-26 -9 -6 -9 -9 -1 -15 9 -5 9 -10 0 -21 -9 -11 -7 -18 9 -31 25 -22 40 -89
20 -91 -7 0 -47 -3 -89 -5 -42 -2 -80 -7 -85 -9 -11 -7 -58 -4 -100 6 -33 7
-56 46 -27 46 8 0 12 3 9 8 -7 11 27 77 42 80 6 1 12 -3 12 -9 0 -5 4 -8 9 -5
5 3 19 -2 32 -12 35 -27 159 -83 159 -71 0 5 -4 9 -9 9 -4 0 -47 25 -95 56
-49 32 -92 54 -101 50 -9 -3 -15 0 -15 10 0 11 6 13 20 9 27 -9 60 3 60 21 0
8 -6 27 -14 42 -14 27 -13 28 11 30 21 2 24 0 13 -13 -10 -12 -9 -16 5 -21 13
-5 15 -14 11 -35 -3 -16 -1 -29 4 -29 15 0 50 38 50 55 0 8 4 15 9 15 5 0 7 9
4 20 -7 27 2 25 35 -5z m-1267 -68 c-5 -5 -8 11 -9 40 l0 48 9 -39 c6 -23 6
-43 0 -49z m1382 69 c4 -10 1 -13 -9 -9 -7 3 -14 9 -14 14 0 14 17 10 23 -5z
m131 8 c9 -3 16 -12 16 -19 0 -7 5 -15 10 -17 6 -2 13 -21 16 -42 4 -34 3 -37
-11 -26 -8 7 -15 22 -16 34 -1 19 -2 18 -9 -4 -8 -25 -8 -25 -9 -2 -1 16 -5
21 -13 16 -10 -6 -10 -5 -1 7 10 13 6 15 -28 16 -22 1 -46 9 -54 17 -13 13
-11 15 17 19 59 7 66 7 82 1z m2846 -40 c0 -27 -4 -35 -16 -32 -8 2 -14 8 -12
13 2 6 6 9 11 8 4 -2 7 8 7 22 0 14 2 25 5 25 3 0 5 -16 5 -36z m-4330 5 c0
-5 -4 -9 -10 -9 -5 0 -10 7 -10 16 0 8 5 12 10 9 6 -3 10 -10 10 -16z m1300
-69 c0 -5 -2 -10 -4 -10 -3 0 -8 5 -11 10 -3 6 -1 10 4 10 6 0 11 -4 11 -10z
m-1206 -60 c-5 -23 -12 -41 -16 -41 -5 1 -19 1 -33 1 -17 0 -29 9 -40 30 -19
37 -19 57 0 57 8 0 15 -5 15 -11 0 -7 3 -7 8 0 9 15 54 23 66 12 5 -4 5 -24 0
-48z m4253 39 c8 -3 9 -9 3 -19 -11 -17 -15 -13 -24 20 -4 14 -4 20 1 14 4 -6
13 -13 20 -15z m3057 5 c15 -6 24 -44 10 -44 -18 0 -42 22 -38 35 7 17 7 17
28 9z m2373 -35 c56 -35 71 -79 98 -289 22 -167 35 -242 51 -284 12 -31 14
-74 9 -223 -5 -193 -12 -220 -57 -244 -10 -6 -89 -9 -186 -8 -160 2 -170 1
-247 -27 -71 -25 -98 -29 -240 -33 -163 -6 -234 1 -270 25 -11 8 -29 14 -41
14 -13 0 -36 12 -53 26 -49 41 -44 82 19 145 79 79 142 91 201 38 150 -135
352 -91 405 88 8 29 12 63 8 80 -8 36 -89 205 -124 258 -31 48 -60 111 -60
129 0 8 -17 26 -37 42 -21 16 -44 34 -51 41 -8 7 -22 18 -33 23 -14 8 -19 22
-19 56 0 58 11 78 63 111 57 37 132 48 349 50 168 2 184 1 215 -18z m-5451
-59 c1 -16 4 -40 8 -54 5 -19 2 -24 -12 -22 -17 3 -31 46 -15 46 5 0 7 17 5
38 -3 20 -1 33 4 29 5 -5 9 -21 10 -37z m3040 8 c4 -4 -12 -10 -35 -14 -22 -4
-41 -10 -41 -15 0 -5 -4 -9 -10 -9 -10 0 -14 52 -5 62 7 6 80 -14 91 -24z
m-7241 -66 c-4 -4 -13 2 -21 12 -21 30 -17 39 7 15 11 -11 18 -24 14 -27z
m-228 -29 c-3 -10 -5 -2 -5 17 0 19 2 27 5 18 2 -10 2 -26 0 -35z m1058 37
c-3 -5 -10 -10 -16 -10 -5 0 -9 5 -9 10 0 6 7 10 16 10 8 0 12 -4 9 -10z
m-995 -25 c14 -19 14 -19 -2 -6 -10 7 -18 18 -18 24 0 6 1 8 3 6 1 -2 9 -13
17 -24z m58 -9 c11 -18 23 -44 27 -57 3 -13 -7 -1 -24 28 -17 29 -31 55 -31
58 0 12 9 3 28 -29z m1006 4 c-7 -7 -19 -7 -35 -1 -23 9 -22 10 11 10 23 1 31
-2 24 -9z m41 0 c3 -5 1 -10 -4 -10 -6 0 -11 5 -11 10 0 6 2 10 4 10 3 0 8 -4
11 -10z m-132 -17 c-7 -2 -19 -2 -25 0 -7 3 -2 5 12 5 14 0 19 -2 13 -5z
m3402 -13 c3 -5 1 -10 -4 -10 -6 0 -11 5 -11 10 0 6 2 10 4 10 3 0 8 -4 11
-10z m-3330 -10 c8 -13 -5 -13 -25 0 -13 8 -13 10 2 10 9 0 20 -4 23 -10z
m-110 -20 c10 -11 15 -20 11 -20 -14 0 -46 21 -46 30 0 16 16 11 35 -10z
m4402 6 c-8 -21 23 -29 42 -12 13 12 24 13 56 5 22 -6 48 -11 57 -12 18 -1 14
-17 -4 -17 -6 0 -19 -7 -29 -16 -17 -15 -19 -15 -34 0 -22 22 -42 20 -50 -4
-8 -27 -16 -25 -69 11 -61 41 -59 56 8 58 20 1 27 -3 23 -13z m-5338 -20 c11
-14 6 -15 -27 -7 -4 1 8 21 12 21 2 0 9 -6 15 -14z m5001 -1 c0 -8 -4 -15 -9
-15 -13 0 -22 16 -14 24 11 11 23 6 23 -9z m-3952 -18 c-4 -15 37 -69 46 -60
3 3 6 0 6 -7 0 -7 3 -10 7 -7 3 4 16 -7 28 -23 12 -16 24 -27 27 -24 3 2 8 -2
11 -10 8 -21 -20 -28 -89 -21 -36 3 -63 11 -70 20 -6 8 -17 15 -23 15 -8 0
-10 8 -6 20 5 14 2 20 -9 20 -9 0 -16 4 -16 9 0 5 8 7 19 4 10 -3 22 1 26 8 6
8 4 10 -6 4 -8 -5 -3 4 10 18 14 15 21 27 17 27 -4 0 -4 5 -1 10 9 14 26 12
23 -3z m4162 9 c0 -3 -4 -8 -10 -11 -5 -3 -10 -1 -10 4 0 6 5 11 10 11 6 0 10
-2 10 -4z m-5179 -52 c7 -20 4 -30 -16 -52 -14 -15 -21 -28 -15 -30 5 -2 9
-20 9 -40 -1 -22 -3 -29 -6 -17 -3 10 -12 30 -20 42 -14 21 -14 25 3 44 10 11
18 35 18 54 0 37 12 37 27 -1z m1709 26 c0 -5 -5 -10 -11 -10 -5 0 -7 5 -4 10
3 6 8 10 11 10 2 0 4 -4 4 -10z m-1759 -43 c-16 -16 -26 0 -10 19 9 11 15 12
17 4 2 -6 -1 -17 -7 -23z m5159 -7 c-20 -13 -33 -13 -25 0 3 6 14 10 23 10 15
0 15 -2 2 -10z m-3395 -30 c-3 -5 -11 -10 -16 -10 -6 0 -7 5 -4 10 3 6 11 10
16 10 6 0 7 -4 4 -10z m-525 -50 c12 -8 11 -10 -7 -10 -13 0 -23 5 -23 10 0
13 11 13 30 0z m-1154 -76 c4 -43 3 -55 -5 -44 -6 8 -11 24 -11 36 0 11 -5 25
-11 31 -6 6 -8 21 -4 33 11 35 26 9 31 -56z m1617 69 c-13 -2 -23 -11 -23 -19
0 -8 -4 -14 -10 -14 -12 0 -12 3 -4 24 4 10 17 15 33 15 23 -2 24 -2 4 -6z
m-1693 -36 c0 -5 -4 -5 -10 -2 -5 3 -10 14 -10 23 0 15 2 15 10 2 5 -8 10 -19
10 -23z m114 18 c3 -8 1 -15 -4 -15 -6 0 -10 7 -10 15 0 8 2 15 4 15 2 0 6 -7
10 -15z m4706 -12 c0 -20 -3 -24 -11 -16 -7 7 -9 19 -6 27 10 24 17 19 17 -11z
m-1276 -24 c22 -6 65 -8 97 -4 67 8 157 -3 124 -15 -22 -8 -475 -3 -542 6 -46
6 -57 20 -20 26 42 7 302 -3 341 -13z m-3390 -21 c1 -7 5 -19 9 -25 5 -7 4
-13 -1 -13 -11 0 -33 46 -25 54 8 8 14 2 17 -16z m3931 11 c55 -7 119 -11 142
-10 23 1 45 -4 49 -10 5 -9 -23 -10 -112 -6 -66 4 -170 7 -231 7 -63 0 -113 4
-113 9 0 21 119 26 265 10z m-4055 -32 c0 -5 -4 -5 -10 -2 -5 3 -10 14 -10 23
0 15 2 15 10 2 5 -8 10 -19 10 -23z m1095 3 c3 -5 1 -10 -4 -10 -6 0 -11 5
-11 10 0 6 2 10 4 10 3 0 8 -4 11 -10z m2047 -1 c25 -12 172 -218 163 -228 -4
-3 -24 15 -47 39 -22 25 -67 73 -100 108 -37 39 -58 68 -54 77 6 18 9 18 38 4z
m-3052 -19 c0 -5 -2 -10 -4 -10 -3 0 -8 5 -11 10 -3 6 -1 10 4 10 6 0 11 -4
11 -10z m1429 -2 c0 -7 -14 -24 -31 -38 -32 -25 -139 -50 -208 -48 -34 0 -34
1 10 10 122 26 170 42 191 64 25 26 39 31 38 12z m1584 -23 c21 -20 37 -40 37
-45 0 -5 -20 -25 -45 -46 -25 -20 -45 -41 -45 -47 0 -6 12 -24 27 -39 36 -38
73 -37 101 2 38 51 81 31 86 -41 1 -16 4 -30 7 -32 6 -6 69 -17 69 -13 0 17
-15 36 -27 36 -8 0 -13 6 -10 13 6 18 40 9 57 -16 8 -12 50 -60 93 -106 42
-47 77 -91 77 -98 0 -18 -45 -16 -60 2 -18 22 -29 19 -40 -11 -7 -18 -6 -33 5
-54 8 -16 15 -43 15 -61 0 -38 47 -142 60 -134 6 4 10 12 10 20 0 7 5 15 12
17 7 3 15 29 18 59 5 50 7 54 30 54 25 0 25 -1 22 -69 -1 -38 2 -84 9 -103 8
-24 8 -38 1 -45 -6 -6 -8 -17 -5 -24 3 -8 3 -25 -1 -37 -4 -19 -12 -23 -36
-22 -34 2 -32 1 -47 35 -11 24 -12 23 -12 -16 -1 -35 3 -43 22 -48 38 -10 67
-7 73 9 4 8 11 15 18 15 22 0 46 40 46 77 0 20 7 43 15 52 8 9 24 26 35 39 17
18 28 22 53 18 18 -3 26 -3 20 0 -7 3 -13 17 -13 30 0 20 5 24 30 24 22 0 31
-6 35 -22 5 -20 71 -68 125 -92 8 -3 33 -17 55 -31 72 -45 169 -92 237 -115
68 -23 89 -42 101 -90 3 -14 19 -38 35 -53 25 -25 34 -27 71 -21 23 4 58 18
78 31 25 17 50 25 82 25 54 0 110 -8 118 -16 4 -3 12 -1 20 5 16 14 41 -3 53
-37 5 -13 21 -24 39 -27 25 -5 31 -12 31 -32 0 -37 -42 -60 -113 -60 -49 0
-62 4 -77 23 -15 18 -23 20 -43 13 -14 -5 -27 -16 -29 -23 -4 -10 -10 -9 -25
5 -26 23 -37 22 -30 -4 4 -13 -2 -32 -13 -48 -20 -26 -20 -26 5 -78 33 -68 48
-144 32 -159 -21 -20 -220 -58 -255 -49 -29 7 -26 36 6 50 28 13 28 23 -2 36
-38 18 -105 -17 -106 -53 0 -35 -11 -35 -48 0 -24 22 -28 31 -21 50 5 12 19
26 31 31 25 10 55 40 82 83 22 34 10 58 -42 86 l-38 20 -31 -28 c-27 -24 -36
-27 -65 -21 -18 4 -47 15 -65 24 -18 10 -46 17 -62 17 -48 0 -135 44 -167 84
-45 56 -86 78 -125 64 -59 -20 -218 37 -263 95 l-24 30 21 17 21 17 -26 24
c-13 13 -48 43 -77 67 -28 24 -61 63 -74 87 -12 23 -43 75 -69 114 -27 39 -48
74 -48 77 0 14 -84 126 -105 140 -13 8 -28 28 -33 43 -5 15 -16 34 -24 42 -8
8 -24 35 -37 62 -13 26 -36 61 -52 76 -29 29 -37 64 -20 90 5 8 32 16 65 19
34 3 56 9 56 16 0 19 22 36 45 36 12 0 38 -16 58 -35z m312 14 c21 -16 114
-22 146 -9 29 12 32 11 55 -16 l25 -29 -6 33 c-7 35 8 43 44 20 15 -9 28 -9
58 0 70 21 108 23 128 7 11 -8 28 -15 38 -15 9 0 26 -5 36 -12 13 -8 30 -8 57
-1 23 5 55 6 78 1 31 -7 43 -5 58 8 23 21 63 7 73 -26 4 -13 12 -19 21 -16 8
3 12 2 9 -4 -3 -5 6 -17 20 -26 14 -9 25 -24 25 -34 0 -39 10 -49 45 -43 30 5
38 0 74 -38 38 -40 41 -45 36 -88 -7 -71 22 -144 74 -181 63 -46 87 -53 143
-40 26 7 48 17 48 22 0 6 8 17 18 24 9 7 12 14 5 14 -14 0 -98 99 -90 106 7 7
217 -135 217 -147 0 -5 15 -16 33 -25 31 -15 32 -18 35 -82 4 -76 21 -105 50
-84 9 7 29 18 45 25 15 6 30 19 33 29 6 20 19 23 29 8 4 -6 -4 -20 -17 -31
-13 -12 -16 -19 -7 -16 10 3 20 -6 29 -26 l13 -31 15 22 c22 34 50 28 56 -10
9 -59 2 -81 -27 -85 -15 -2 -28 1 -28 7 -1 5 -3 15 -4 20 -1 6 -3 13 -4 17 0
4 -8 -2 -16 -14 -9 -12 -13 -34 -11 -48 4 -23 2 -25 -29 -25 -42 0 -52 23 -20
44 13 9 29 16 35 16 6 0 5 8 -2 20 -7 11 -18 18 -25 16 -7 -3 -15 -1 -19 5 -3
6 -12 8 -20 5 -7 -3 -18 4 -24 14 -6 11 -20 20 -30 20 -23 0 -26 -10 -8 -28
13 -13 8 -15 -15 -6 -9 3 -13 13 -10 24 3 12 -4 24 -21 36 -31 20 -42 14 -27
-14 8 -16 7 -21 -4 -26 -12 -4 -14 -15 -9 -46 6 -36 4 -40 -14 -40 -28 0 -35
-27 -12 -50 31 -31 25 -46 -19 -48 -29 -2 -46 4 -69 23 -17 14 -46 32 -66 40
-21 9 -48 33 -66 60 -17 25 -37 45 -44 45 -21 0 -66 40 -77 66 -16 44 -85 58
-95 20 -3 -14 -14 -32 -23 -40 -24 -22 -70 -5 -99 34 l-22 29 22 12 c20 11 20
13 5 24 -9 7 -17 17 -17 24 0 17 47 13 54 -4 3 -8 15 -15 26 -15 12 0 30 -4
40 -10 13 -7 21 -6 30 5 16 19 4 35 -24 35 -25 0 -102 71 -112 103 -3 10 -15
17 -29 17 -18 0 -26 7 -31 27 -4 15 -13 34 -20 41 -7 7 -11 19 -7 28 6 17 -23
54 -43 54 -17 0 -54 48 -54 71 0 24 -43 69 -65 69 -9 0 -34 19 -55 42 -32 36
-40 41 -53 30 -13 -11 -20 -10 -41 3 -14 10 -26 21 -26 26 0 5 -7 9 -15 9 -28
0 -15 -29 31 -67 25 -21 55 -38 67 -38 15 0 23 -7 25 -21 2 -11 19 -38 38 -58
26 -27 34 -45 32 -64 -2 -22 -8 -26 -27 -24 -22 2 -23 1 -9 -20 9 -13 29 -27
46 -32 17 -5 33 -15 37 -24 8 -21 -2 -27 -20 -12 -12 10 -15 9 -15 -6 0 -17
33 -48 51 -49 12 0 86 -73 93 -91 6 -16 9 -16 17 -4 9 12 10 12 5 -3 -3 -10
-6 -23 -6 -27 0 -5 -9 -14 -21 -20 -17 -10 -28 -7 -60 14 -21 14 -43 26 -48
26 -5 0 -12 8 -16 18 -3 11 -24 25 -48 33 -65 21 -86 62 -51 100 36 40 -18 71
-85 49 -33 -11 -42 -10 -77 8 -45 23 -154 133 -154 156 0 8 -9 20 -21 26 -19
11 -20 9 -13 -24 8 -43 -6 -47 -31 -10 -16 25 -16 28 -1 36 21 12 22 74 1 82
-24 9 -48 -37 -40 -74 7 -30 6 -31 -13 -21 -12 6 -23 15 -26 20 -3 5 -33 23
-66 40 -34 18 -71 40 -83 51 -12 11 -31 25 -41 33 -11 8 -17 21 -13 30 5 13
17 15 64 10 32 -3 63 -9 68 -14z m-3315 -84 c17 -21 5 -31 -15 -12 -8 9 -15
18 -15 21 0 11 18 6 30 -9z m1051 -8 c-10 -9 -11 -8 -5 6 3 10 9 15 12 12 3
-3 0 -11 -7 -18z m-967 -23 c4 -10 1 -14 -6 -12 -15 5 -23 28 -10 28 5 0 13
-7 16 -16z m2961 -29 c0 -31 -49 -28 -53 3 -3 20 0 23 25 20 20 -2 28 -8 28
-23z m-278 -12 c22 -55 24 -96 3 -121 -30 -36 -55 -25 -55 24 0 23 -6 48 -13
57 -12 14 -10 20 14 42 34 31 37 31 51 -2z m-2720 -15 c-3 -7 -5 -2 -5 12 0
14 2 19 5 13 2 -7 2 -19 0 -25z m91 -19 c-3 -8 -7 -3 -11 10 -4 17 -3 21 5 13
5 -5 8 -16 6 -23z m6306 -15 c9 -3 16 -14 16 -23 0 -9 9 -24 20 -34 11 -9 20
-21 20 -26 0 -25 -20 -16 -61 25 -36 37 -41 46 -29 54 18 12 15 11 34 4z
m-6549 -24 c-10 -11 -20 -18 -23 -15 -7 6 18 35 31 35 5 0 2 -9 -8 -20z m4591
-61 c40 -24 44 -46 9 -51 l-25 -3 19 -37 c23 -41 17 -51 -34 -61 -42 -8 -50
-1 -69 65 -19 67 -20 104 -3 112 20 9 67 -3 103 -25z m-506 -9 c0 -5 -4 -10
-10 -10 -5 0 -10 5 -10 10 0 6 5 10 10 10 6 0 10 -4 10 -10z m910 -20 c0 -5
-7 -10 -15 -10 -8 0 -15 5 -15 10 0 6 7 10 15 10 8 0 15 -4 15 -10z m-4990
-30 c13 -8 13 -10 -2 -10 -9 0 -20 5 -23 10 -8 13 5 13 25 0z m1400 0 c0 -5
-4 -10 -10 -10 -5 0 -10 5 -10 10 0 6 5 10 10 10 6 0 10 -4 10 -10z m-1456
-40 c-6 -5 -24 21 -24 34 0 6 6 1 14 -10 8 -10 12 -21 10 -24z m116 21 c0 -10
-26 -9 -36 2 -4 4 2 7 14 7 12 0 22 -4 22 -9z m3858 -14 c2 -10 -3 -17 -12
-17 -18 0 -29 16 -21 31 9 14 29 6 33 -14z m-3918 -2 c0 -9 9 -15 25 -15 22 0
24 -2 13 -19 -8 -13 -16 -17 -24 -11 -6 6 -14 7 -17 3 -4 -3 -7 1 -7 10 0 8
-3 22 -6 31 -3 9 -1 16 5 16 6 0 11 -7 11 -15z m1980 -1 c36 -9 86 -19 111
-23 50 -8 93 -37 120 -80 9 -16 38 -46 63 -67 49 -41 59 -73 31 -100 -13 -13
-19 -11 -54 23 -83 82 -107 101 -129 108 -13 4 -28 18 -34 31 -10 22 -17 24
-87 24 -65 0 -80 4 -114 27 -40 28 -61 56 -50 67 11 10 75 6 143 -10z m3650
-24 c0 -5 -4 -10 -10 -10 -5 0 -10 5 -10 10 0 6 5 10 10 10 6 0 10 -4 10 -10z
m-5510 -140 c0 -5 -2 -10 -4 -10 -3 0 -8 5 -11 10 -3 6 -1 10 4 10 6 0 11 -4
11 -10z m1230 -24 c0 -3 -4 -8 -10 -11 -5 -3 -10 -1 -10 4 0 6 5 11 10 11 6 0
10 -2 10 -4z m290 -6 c0 -5 -5 -10 -11 -10 -5 0 -7 5 -4 10 3 6 8 10 11 10 2
0 4 -4 4 -10z m-612 -25 c17 -36 15 -38 -13 -19 l-25 16 -1 -38 c0 -22 -7 -61
-14 -89 l-14 -50 5 55 c7 83 25 150 38 150 7 0 18 -11 24 -25z m262 11 c0 -3
-4 -8 -10 -11 -5 -3 -10 -1 -10 4 0 6 5 11 10 11 6 0 10 -2 10 -4z m94 -8 c-5
-9 -2 -8 10 1 13 11 20 11 28 3 9 -9 7 -12 -7 -12 -31 0 -4 -18 39 -27 22 -5
42 -15 44 -22 4 -11 -1 -12 -19 -6 -13 4 -37 9 -54 10 -16 1 -38 5 -47 10 -23
9 -24 55 -2 55 9 0 12 -5 8 -12z m3914 -21 c4 -31 -12 -36 -28 -8 -15 29 -12
43 8 39 10 -2 18 -14 20 -31z m-3748 13 c0 -5 -2 -10 -4 -10 -3 0 -8 5 -11 10
-3 6 -1 10 4 10 6 0 11 -4 11 -10z m-1570 -30 c0 -4 -10 -10 -21 -13 -16 -4
-20 -11 -16 -26 3 -12 1 -24 -4 -27 -12 -7 -11 43 1 66 10 18 40 18 40 0z
m1598 -6 c37 -14 76 -30 87 -35 11 -5 68 -30 127 -56 83 -38 120 -61 167 -106
33 -32 63 -67 66 -78 4 -10 11 -17 16 -13 13 7 41 -15 33 -27 -3 -5 0 -9 6 -9
6 0 9 -4 6 -8 -5 -8 34 -56 51 -63 4 -2 16 -21 25 -42 10 -20 29 -42 42 -47
27 -10 102 -133 85 -139 -20 -6 -69 22 -70 40 -3 36 -4 40 -19 49 -8 5 -25 10
-38 10 -31 0 -102 37 -102 53 0 7 5 18 11 24 7 7 3 9 -15 6 -14 -3 -26 -10
-26 -17 0 -6 -6 0 -13 14 -8 17 -22 25 -42 27 -17 1 -37 10 -45 20 -8 11 -31
23 -50 29 -42 12 -47 38 -7 42 27 3 35 16 17 27 -15 9 -12 25 5 25 8 0 15 -9
15 -20 0 -22 16 -27 23 -7 4 9 7 9 18 -1 12 -11 12 -14 -1 -23 -13 -8 -12 -11
4 -24 23 -18 46 -20 46 -4 0 6 -7 9 -15 5 -11 -4 -15 1 -15 17 0 30 -46 92
-68 93 -38 1 -69 19 -114 65 -35 37 -48 45 -52 33 -5 -14 -11 -13 -40 6 -29
17 -36 18 -43 7 -4 -8 -17 -17 -29 -21 -17 -5 -23 0 -34 34 -7 21 -26 51 -43
66 -20 18 -26 29 -18 34 8 4 0 13 -21 23 -53 26 -5 20 70 -9z m-1412 -19 c10
-8 32 -15 47 -15 25 0 28 -3 25 -27 -2 -20 -9 -29 -26 -31 -16 -3 -22 -8 -18
-19 3 -8 6 -17 6 -19 0 -2 5 -4 10 -4 6 0 10 7 10 16 0 8 4 13 9 10 5 -4 4
-16 -2 -31 -7 -13 -13 -20 -15 -15 -2 6 -12 10 -23 10 -10 0 -19 6 -19 13 0
20 -26 69 -49 94 -21 22 -20 24 20 32 3 0 14 -6 25 -14z m567 9 c8 -8 -3 -34
-14 -34 -5 0 -9 9 -9 20 0 19 11 26 23 14z m-733 -24 c0 -5 -2 -10 -4 -10 -2
0 -12 -3 -20 -6 -12 -5 -15 -2 -10 10 7 17 34 22 34 6z m66 -17 c2 -13 -1 -23
-7 -23 -5 0 -7 5 -3 11 4 7 2 10 -5 8 -7 -3 -12 -9 -11 -14 1 -5 -8 -12 -19
-17 -12 -4 -21 -16 -21 -27 0 -26 -26 -18 -33 10 -6 21 8 35 18 19 4 -7 16 -1
31 15 13 15 21 31 18 37 -4 6 1 8 11 6 10 -1 20 -13 21 -25z m641 -53 c25 -19
69 -46 97 -61 28 -16 43 -29 33 -29 -10 0 -29 7 -42 16 -15 10 -25 12 -25 5 0
-18 -20 -13 -27 7 -6 18 -72 82 -85 82 -5 0 -7 12 -7 28 1 21 3 22 6 6 2 -12
25 -36 50 -54z m59 33 c-11 -11 -17 4 -9 23 7 18 8 18 11 1 2 -10 1 -21 -2
-24z m709 -1 c-21 -5 -40 12 -30 28 5 8 13 6 27 -7 18 -16 19 -18 3 -21z m845
-3 c0 -10 -4 -19 -10 -19 -5 0 -10 12 -10 26 0 14 4 23 10 19 6 -3 10 -15 10
-26z m2988 8 c7 -35 -59 -62 -86 -35 -20 20 -15 51 7 45 10 -2 25 -1 32 4 21
13 43 6 47 -14z m-5175 -38 c-8 -30 -31 -5 -25 28 4 24 6 25 17 9 7 -9 11 -26
8 -37z m1962 41 c3 -5 1 -10 -4 -10 -6 0 -11 5 -11 10 0 6 2 10 4 10 3 0 8 -4
11 -10z m-815 -31 c87 -30 111 -42 98 -50 -7 -5 -20 -6 -28 -4 -9 3 -35 7 -59
9 -44 4 -81 29 -81 54 0 15 5 14 70 -9z m-1335 -16 c9 4 14 3 10 -3 -11 -17
-45 -11 -45 8 0 14 2 14 9 3 5 -8 16 -11 26 -8z m955 2 c0 -8 -4 -15 -10 -15
-5 0 -10 7 -10 15 0 8 5 15 10 15 6 0 10 -7 10 -15z m-860 -9 c0 -3 -4 -8 -10
-11 -5 -3 -10 -1 -10 4 0 6 5 11 10 11 6 0 10 -2 10 -4z m630 -17 c0 -15 -18
-19 -23 -6 -3 8 1 14 9 14 8 0 14 -4 14 -8z m287 -41 c-3 -7 -5 -2 -5 12 0 14
2 19 5 13 2 -7 2 -19 0 -25z m-33 13 c3 -5 -6 -8 -20 -8 -19 0 -22 2 -13 8 18
11 26 11 33 0z m8902 1 c23 -15 35 -54 38 -124 2 -40 8 -85 14 -99 14 -35 17
-77 8 -121 -6 -27 -14 -38 -33 -43 -35 -8 -63 3 -63 26 0 10 -6 19 -14 19 -8
0 -16 15 -19 38 -4 22 -15 42 -27 50 -11 7 -20 18 -20 26 0 8 -12 22 -27 32
-16 10 -34 24 -41 31 -7 7 -22 13 -31 13 -10 0 -24 7 -32 16 -10 13 -9 21 6
47 26 46 45 61 95 76 25 7 50 15 55 16 20 6 80 4 91 -3z m-9626 -6 c0 -2 -9
-6 -20 -9 -11 -3 -20 -1 -20 4 0 5 9 9 20 9 11 0 20 -2 20 -4z m4735 -53 c10
-21 26 -50 36 -64 10 -14 21 -37 24 -52 9 -34 -9 -36 -56 -4 -24 16 -35 31
-36 52 -2 17 -5 47 -9 68 -5 29 -3 37 9 37 8 0 23 -17 32 -37z m-3875 8 c0 -5
-7 -11 -15 -15 -15 -5 -20 5 -8 17 9 10 23 9 23 -2z m-110 -19 c-1 -18 -19
-34 -34 -29 -25 10 -19 32 9 35 14 1 25 -2 25 -6z m-230 -73 c0 -10 -7 -19
-15 -19 -16 0 -19 9 -9 34 8 20 24 11 24 -15z m1080 1 c8 -5 11 -12 8 -16 -10
-9 -38 3 -38 16 0 12 10 13 30 0z m2699 -9 l33 -18 -27 -21 c-25 -20 -29 -20
-56 -6 -33 16 -37 38 -11 53 22 13 21 13 61 -8z m-3699 -31 c0 -5 -4 -10 -10
-10 -5 0 -10 5 -10 10 0 6 5 10 10 10 6 0 10 -4 10 -10z m420 -21 c0 -23 -23
-89 -31 -89 -16 0 -30 42 -24 71 5 22 12 29 31 29 13 0 24 -5 24 -11z m3650
-19 c0 -5 -4 -10 -9 -10 -6 0 -13 5 -16 10 -3 6 1 10 9 10 9 0 16 -4 16 -10z
m-4944 -28 c-18 -16 -18 -16 -6 6 6 13 14 21 18 18 3 -4 -2 -14 -12 -24z
m1972 -14 c21 -21 14 -38 -16 -38 -30 0 -61 34 -39 43 22 9 43 7 55 -5z m1254
-30 c3 -26 9 -33 42 -45 34 -11 43 -11 61 1 19 13 29 13 74 -1 36 -10 51 -19
47 -28 -3 -8 20 -40 52 -73 l57 -59 -32 -22 -33 -21 -44 22 c-39 18 -46 27
-51 60 -4 21 -11 35 -16 32 -6 -3 -25 11 -44 32 -36 39 -42 34 -25 -26 6 -20
6 -38 1 -43 -15 -15 -70 24 -81 58 -12 35 -46 75 -83 100 -43 28 -35 45 22 45
48 0 50 -1 53 -32z m1838 7 c0 -8 -8 -15 -19 -15 -10 0 -24 7 -31 15 -11 13
-8 15 19 15 21 0 31 -5 31 -15z m-262 -107 c7 -7 12 -22 12 -35 0 -17 -9 -25
-39 -34 -27 -8 -44 -8 -57 -1 -17 9 -16 12 14 29 18 10 35 26 38 36 6 20 15
22 32 5z m-1073 -43 c0 -26 -3 -30 -29 -30 -36 0 -56 26 -36 50 8 9 24 15 39
13 22 -2 26 -8 26 -33z m570 -19 c0 -25 -15 -29 -39 -11 -22 17 -12 37 17 33
14 -2 22 -10 22 -22z m-1785 -34 c0 -7 -4 -10 -10 -7 -5 3 -10 16 -10 28 0 18
2 19 10 7 5 -8 10 -21 10 -28z m1342 8 c21 -6 40 -15 44 -21 9 -15 -5 -59 -19
-59 -7 0 -18 -9 -25 -20 -15 -25 -32 -26 -32 -2 0 10 -11 33 -25 52 -43 59
-27 73 57 50z m203 -66 c0 -27 -37 -29 -60 -4 -19 22 -19 22 0 36 16 12 22 12
39 0 12 -7 21 -22 21 -32z m-1525 -9 c0 -17 -2 -17 -10 -5 -5 8 -10 24 -10 35
0 17 2 17 10 5 5 -8 10 -24 10 -35z m1125 23 c45 -12 62 -38 25 -38 -11 0 -34
-13 -52 -30 -38 -36 -48 -38 -48 -6 0 13 -7 26 -15 30 -22 8 -18 35 8 46 30
12 30 12 82 -2z m125 -7 c5 -11 10 -31 10 -45 0 -23 -4 -26 -34 -26 -18 0 -48
-3 -65 -6 -20 -4 -31 -3 -31 5 0 6 10 11 23 11 31 0 47 18 47 52 0 21 5 28 20
28 10 0 24 -9 30 -19z m-1771 -34 c6 -8 35 -24 66 -37 30 -13 55 -27 55 -33 0
-5 21 -32 47 -61 25 -28 62 -76 81 -106 19 -30 44 -65 55 -77 20 -23 18 -41
-3 -28 -6 3 -31 37 -56 75 -76 117 -150 191 -220 225 -35 17 -66 36 -68 43 -7
16 28 16 43 -1z m551 -76 c0 -28 -17 3 -23 39 l-6 35 14 -30 c8 -16 14 -37 15
-44z m975 49 c0 -22 -29 -18 -33 3 -3 14 1 18 15 15 10 -2 18 -10 18 -18z
m-1959 -20 c13 0 14 -3 4 -15 -16 -19 -40 -19 -40 0 0 9 -7 18 -15 21 -8 4
-15 11 -15 16 0 6 11 3 25 -6 13 -9 32 -16 41 -16z m2353 21 c19 -12 6 -43
-16 -39 -21 4 -31 48 -11 48 7 0 19 -4 27 -9z m-2609 -10 c0 -6 -4 -13 -10
-16 -5 -3 -10 1 -10 9 0 9 5 16 10 16 6 0 10 -4 10 -9z m1984 -53 c14 -20 14
-24 1 -37 -19 -19 -65 0 -65 27 0 38 40 45 64 10z m783 6 c12 -2 23 2 25 8 3
9 12 8 31 -5 42 -27 37 -72 -9 -99 -34 -20 -35 -22 -18 -35 11 -8 29 -12 42
-10 12 2 25 0 28 -5 3 -5 18 -14 32 -19 23 -9 24 -11 10 -25 -13 -13 -24 -14
-74 -5 -32 6 -62 18 -67 26 -10 18 -47 20 -47 3 0 -7 -5 -5 -11 5 -10 18 -12
18 -34 -3 -29 -27 -66 -20 -58 10 3 11 -2 31 -11 45 -9 13 -16 43 -16 66 l0
41 40 -7 c33 -6 40 -4 40 10 0 16 16 16 97 -1z m-2477 -24 c5 0 12 5 15 10 7
11 72 3 90 -10 10 -8 87 -19 131 -20 12 0 29 -9 38 -19 16 -18 14 -19 -56 -19
-40 -1 -74 -5 -75 -9 -3 -9 -130 -9 -140 0 -3 4 -15 7 -25 7 -10 0 -18 6 -18
13 0 7 -10 21 -21 31 l-21 18 23 12 c19 9 27 9 37 -1 7 -7 17 -13 22 -13z
m2712 -7 c15 -18 20 -30 32 -85 9 -38 -22 -68 -70 -68 l-36 0 31 32 c23 23 30
39 26 53 -22 77 -15 105 17 68z m-648 -54 c14 -17 26 -38 26 -47 0 -10 14 -30
30 -45 36 -35 38 -50 5 -67 -21 -11 -30 -11 -62 3 -21 9 -47 17 -58 19 -17 3
-20 12 -23 65 -5 102 31 133 82 72z m586 -29 c0 -5 -4 -10 -9 -10 -6 0 -13 5
-16 10 -3 6 1 10 9 10 9 0 16 -4 16 -10z m-2265 -40 c14 -27 14 -30 -6 -41
-29 -15 -40 -1 -32 44 6 41 16 40 38 -3z m145 30 c0 -5 -5 -10 -11 -10 -5 0
-7 5 -4 10 3 6 8 10 11 10 2 0 4 -4 4 -10z m1752 -25 c15 -34 -3 -56 -40 -46
-21 6 -28 14 -30 39 -3 30 -1 32 28 32 23 0 33 -6 42 -25z m-3529 -6 c16 -25
1 -49 -31 -49 -27 0 -52 15 -52 32 0 4 7 8 15 8 9 0 18 7 22 15 7 19 32 16 46
-6z m1439 -16 c14 -12 18 -13 18 -3 0 11 3 11 11 3 9 -9 8 -16 -5 -28 -9 -9
-16 -13 -16 -9 0 5 -5 3 -11 -3 -7 -7 -25 -9 -40 -6 -22 4 -29 2 -29 -10 0 -8
-9 -17 -20 -20 -13 -3 -19 -1 -18 7 2 7 -10 24 -27 39 -27 24 -28 26 -9 27 11
0 25 -5 32 -10 6 -6 9 -7 6 -3 -4 6 31 19 85 32 3 1 13 -6 23 -16z m298 -27
c0 -3 -4 -8 -10 -11 -5 -3 -10 -1 -10 4 0 6 5 11 10 11 6 0 10 -2 10 -4z
m1896 -21 c3 -8 14 -17 25 -20 25 -8 24 -36 -2 -69 -16 -20 -29 -26 -61 -26
-27 0 -45 6 -54 18 -13 16 -15 16 -25 0 -10 -19 -37 -22 -77 -12 -16 5 -22 13
-20 28 3 19 8 21 70 18 62 -2 67 -1 73 20 7 22 42 57 58 58 4 0 10 -7 13 -15z
m-2996 -20 c15 -18 5 -35 -21 -35 -12 0 -19 7 -19 18 0 33 20 42 40 17z m-637
-22 c3 -16 1 -32 -3 -37 -14 -14 -40 13 -40 40 0 36 36 32 43 -3z m1737 -27
c0 -8 -4 -17 -9 -21 -12 -7 -24 12 -16 25 9 15 25 12 25 -4z m1205 -17 c40
-35 44 -54 16 -69 -36 -19 -47 -11 -58 37 -10 43 -9 63 2 63 2 0 20 -14 40
-31z m205 21 c0 -5 -2 -10 -4 -10 -3 0 -8 5 -11 10 -3 6 -1 10 4 10 6 0 11 -4
11 -10z m231 -3 c-1 -12 -15 -9 -19 4 -3 6 1 10 8 8 6 -3 11 -8 11 -12z"/>
<path d="M7804 6252 c9 -15 48 -23 43 -9 -2 7 -14 14 -26 15 -13 2 -21 -1 -17
-6z"/>
<path d="M5447 6468 c-42 -47 -48 -80 -9 -53 12 9 22 23 22 32 0 9 7 25 17 35
9 10 14 20 12 23 -3 2 -22 -14 -42 -37z"/>
<path d="M5050 6310 c0 -5 9 -10 20 -10 11 0 20 5 20 10 0 6 -9 10 -20 10 -11
0 -20 -4 -20 -10z"/>
<path d="M5526 6241 c-10 -11 -16 -26 -14 -33 3 -8 11 -2 23 15 21 33 15 45
-9 18z"/>
<path d="M4491 5954 c-16 -27 -27 -52 -24 -57 8 -14 43 24 43 48 0 11 5 26 12
33 6 6 9 14 5 18 -3 3 -19 -16 -36 -42z"/>
<path d="M4650 5941 c0 -5 14 -14 30 -20 17 -5 30 -8 30 -5 0 3 10 -1 23 -7
l22 -11 -22 21 c-12 11 -28 18 -36 15 -8 -3 -18 -1 -22 5 -8 13 -25 14 -25 2z"/>
<path d="M4940 5720 c0 -5 5 -10 10 -10 6 0 10 5 10 10 0 6 -4 10 -10 10 -5 0
-10 -4 -10 -10z"/>
<path d="M4146 5041 c-4 -7 -5 -15 -2 -18 9 -9 19 4 14 18 -4 11 -6 11 -12 0z"/>
<path d="M6798 4913 c7 -3 16 -2 19 1 4 3 -2 6 -13 5 -11 0 -14 -3 -6 -6z"/>
<path d="M7671 4883 c-7 -8 -11 -16 -8 -19 6 -7 37 7 37 16 0 16 -15 18 -29 3z"/>
<path d="M6709 4888 c-6 -21 -5 -39 2 -44 5 -3 9 2 9 10 0 9 5 16 10 16 6 0
10 -5 10 -11 0 -5 5 -7 10 -4 20 12 10 35 -15 35 -14 0 -25 -1 -26 -2z"/>
<path d="M6548 4863 c7 -3 16 -2 19 1 4 3 -2 6 -13 5 -11 0 -14 -3 -6 -6z"/>
<path d="M6608 4797 c-69 -36 -85 -62 -44 -73 18 -4 34 1 58 19 18 14 42 27
53 31 23 7 28 43 8 50 -7 3 -41 -9 -75 -27z"/>
<path d="M6452 4751 c-11 -7 -10 -10 3 -15 20 -7 38 1 30 15 -7 11 -16 11 -33
0z"/>
<path d="M7690 4651 c-14 -11 -21 -23 -17 -27 12 -13 82 10 82 26 0 22 -37 23
-65 1z"/>
<path d="M7792 4639 c2 -6 8 -10 13 -10 5 0 11 4 13 10 2 6 -4 11 -13 11 -9 0
-15 -5 -13 -11z"/>
<path d="M7686 4573 c-12 -12 -6 -33 9 -33 8 0 15 6 15 14 0 17 -14 28 -24 19z"/>
<path d="M9005 3968 c-22 -5 -62 -12 -90 -15 -34 -4 -64 -15 -94 -37 l-44 -31
6 -110 c6 -129 -11 -268 -42 -339 -18 -41 -20 -57 -13 -93 10 -47 9 -122 -3
-166 -10 -39 15 -63 89 -86 72 -22 145 -25 167 -8 10 7 21 42 28 87 7 41 15
86 17 100 3 14 8 43 11 65 3 22 23 77 44 122 56 118 59 128 75 233 26 179 15
248 -42 275 -36 17 -51 17 -109 3z"/>
<path d="M6088 3661 c-23 -8 -10 -27 26 -41 20 -7 32 -8 40 0 7 7 6 10 -2 10
-6 0 -19 8 -29 19 -11 11 -25 16 -35 12z"/>
<path d="M7286 3637 l-30 -13 31 -13 c46 -19 94 -17 109 4 7 10 11 22 8 26 -8
13 -85 10 -118 -4z"/>
<path d="M6941 3604 c-33 -15 -34 -16 -28 -65 5 -43 4 -50 -16 -61 -12 -7 -23
-22 -23 -33 -1 -11 -5 -29 -9 -40 -5 -13 8 -5 36 21 39 37 47 41 74 33 29 -9
85 5 85 20 0 3 3 16 6 27 4 16 0 23 -15 27 -12 3 -21 10 -21 17 0 6 4 9 9 6 5
-4 7 3 4 14 -4 17 -52 53 -65 49 -2 0 -18 -7 -37 -15z"/>
<path d="M6112 3601 c-10 -6 -10 -10 2 -20 22 -19 40 -10 24 11 -8 11 -18 15
-26 9z"/>
<path d="M6190 3585 c0 -8 5 -15 10 -15 6 0 10 7 10 15 0 8 -4 15 -10 15 -5 0
-10 -7 -10 -15z"/>
<path d="M6248 3563 c7 -3 16 -2 19 1 4 3 -2 6 -13 5 -11 0 -14 -3 -6 -6z"/>
<path d="M6645 3537 c-7 -15 -18 -21 -33 -20 -19 3 -21 0 -13 -15 7 -12 6 -21
-4 -32 -11 -13 -10 -19 6 -39 l19 -23 1 23 c1 13 0 30 -1 38 -1 9 5 12 19 8
25 -6 52 20 32 33 -8 4 -11 12 -8 17 3 5 2 14 -1 21 -5 7 -11 4 -17 -11z"/>
<path d="M6226 3535 c-11 -8 -15 -15 -9 -15 6 0 16 7 23 15 16 19 11 19 -14 0z"/>
<path d="M6776 3513 c-4 -4 -17 -8 -29 -10 -38 -6 -61 -38 -60 -84 1 -22 6
-46 11 -52 5 -7 9 -19 9 -27 1 -8 4 -23 8 -33 6 -13 3 -16 -9 -11 -9 3 -16 10
-16 14 0 10 -48 6 -75 -5 -57 -25 -73 -103 -32 -151 25 -28 54 -33 100 -15 33
13 46 39 26 53 -11 8 -10 9 4 4 11 -3 17 0 17 9 0 8 4 15 9 15 13 0 10 -42 -5
-60 -6 -8 -15 -25 -18 -37 -5 -15 -15 -23 -30 -23 -19 0 -26 -8 -34 -40 -8
-32 -7 -40 3 -40 8 0 17 5 20 10 3 6 13 10 21 10 10 0 12 -5 8 -12 -12 -18
-12 -50 -2 -79 30 -88 182 -46 175 48 -2 28 -8 35 -34 44 -30 10 -47 39 -23
39 6 0 10 -7 10 -15 0 -17 17 -20 22 -4 2 7 12 7 32 -1 16 -6 32 -8 35 -4 9 9
-30 34 -54 34 -28 0 -85 54 -85 80 0 15 12 23 54 35 30 9 67 13 83 10 26 -5
27 -5 4 5 -19 8 -21 13 -11 24 17 21 -13 63 -51 71 -40 9 -44 25 -22 72 22 44
19 79 -7 93 -10 5 -25 16 -33 24 -8 8 -18 12 -21 9z"/>
<path d="M6453 3502 c-34 -5 -28 -19 12 -26 38 -7 59 -1 49 15 -4 6 -11 6 -19
-1 -10 -8 -14 -8 -17 2 -2 7 -13 12 -25 10z"/>
<path d="M7580 3484 c0 -17 -6 -28 -20 -31 -33 -9 -23 -19 47 -49 59 -25 133
-78 288 -203 101 -82 198 -150 206 -145 49 30 -86 175 -334 359 -26 19 -49 35
-52 35 -2 0 -26 14 -52 30 -59 38 -83 39 -83 4z"/>
<path d="M6301 3454 c0 -11 3 -14 6 -6 3 7 2 16 -1 19 -3 4 -6 -2 -5 -13z"/>
<path d="M6317 3438 c-4 -14 0 -30 11 -42 9 -11 11 -16 5 -12 -9 5 -11 2 -7
-8 7 -17 24 -22 24 -7 0 5 7 17 16 25 14 15 14 18 -8 41 -29 30 -34 31 -41 3z"/>
<path d="M6275 3437 c-4 -10 -5 -21 -1 -24 10 -10 18 4 13 24 -4 17 -4 17 -12
0z"/>
<path d="M6531 3414 c0 -11 3 -14 6 -6 3 7 2 16 -1 19 -3 4 -6 -2 -5 -13z"/>
<path d="M6583 3354 c-15 -26 -83 -33 -83 -8 0 24 -24 10 -35 -20 -7 -20 -6
-29 4 -35 7 -5 11 -19 10 -32 -2 -13 0 -25 4 -26 16 -6 25 -2 31 15 3 9 9 23
12 30 3 7 -1 12 -10 12 -9 0 -16 7 -16 16 0 11 5 14 18 9 39 -16 52 -16 67 -1
9 9 15 26 13 38 -3 23 -3 23 -15 2z"/>
<path d="M7028 3273 c-10 -2 -18 -11 -18 -19 0 -12 -18 -19 -41 -16 -13 2 -17
-38 -6 -46 7 -4 12 -13 13 -19 1 -7 2 -22 3 -33 0 -12 12 -25 26 -30 77 -29
136 88 78 153 -16 17 -23 18 -55 10z m30 -82 c11 -7 11 -9 -1 -14 -16 -6 -27
0 -27 15 0 10 11 10 28 -1z"/>
<path d="M7760 3178 c0 -13 7 -32 15 -42 13 -17 15 -17 15 -4 0 9 -5 20 -11
23 -6 4 -8 13 -5 21 3 7 1 16 -4 19 -6 4 -10 -4 -10 -17z"/>
<path d="M6495 3120 c3 -5 8 -10 11 -10 2 0 4 5 4 10 0 6 -5 10 -11 10 -5 0
-7 -4 -4 -10z"/>
<path d="M7975 2909 c-4 -6 -5 -13 -2 -16 7 -7 27 6 27 18 0 12 -17 12 -25 -2z"/>
<path d="M5100 2879 c7 -11 14 -18 17 -15 8 8 -5 36 -17 36 -7 0 -7 -6 0 -21z"/>
<path d="M6722 2688 c3 -7 15 -15 28 -16 21 -3 22 -2 11 12 -16 19 -44 21 -39
4z"/>
<path d="M4886 2674 c-5 -14 -4 -15 9 -4 17 14 19 20 6 20 -5 0 -12 -7 -15
-16z"/>
<path d="M5272 2620 c0 -14 4 -36 8 -50 l8 -25 0 25 c0 14 -4 36 -8 50 l-8 25
0 -25z"/>
<path d="M5115 2620 c3 -5 8 -10 11 -10 2 0 4 5 4 10 0 6 -5 10 -11 10 -5 0
-7 -4 -4 -10z"/>
<path d="M5330 2450 c0 -5 7 -10 15 -10 8 0 15 5 15 10 0 6 -7 10 -15 10 -8 0
-15 -4 -15 -10z"/>
<path d="M5162 2393 c3 -17 58 -38 58 -22 0 5 -6 9 -14 9 -8 0 -16 7 -20 15
-7 21 -28 19 -24 -2z"/>
<path d="M5412 2381 c2 -19 9 -36 16 -39 17 -5 15 30 -3 54 -14 18 -15 17 -13
-15z"/>
<path d="M4847 2394 c-4 -4 -7 -16 -7 -26 0 -11 -4 -16 -10 -13 -11 7 -14 -8
-4 -18 4 -3 16 5 27 19 12 16 16 29 10 35 -5 5 -12 6 -16 3z"/>
<path d="M4623 2318 c0 -35 2 -54 5 -43 l5 20 9 -20 c5 -13 7 -2 3 34 -7 78
-22 84 -22 9z"/>
<path d="M4756 2294 c-29 -30 -38 -34 -50 -25 -8 7 -17 8 -20 3 -6 -11 9 -25
37 -35 13 -5 23 2 37 26 10 17 24 38 30 45 7 7 10 16 7 18 -3 3 -21 -11 -41
-32z"/>
<path d="M4693 2218 c-20 -26 -26 -41 -15 -34 12 7 36 46 29 46 -3 0 -9 -6
-14 -12z"/>
<path d="M4868 2154 c-10 -19 -18 -40 -18 -46 0 -15 36 33 44 60 11 34 -7 26
-26 -14z"/>
<path d="M6192 2153 c-17 -31 -15 -63 3 -63 21 0 29 24 18 57 -10 28 -10 28
-21 6z"/>
<path d="M4831 2053 c-13 -47 -14 -76 -2 -68 11 6 26 93 18 101 -3 3 -10 -11
-16 -33z"/>
<path d="M6220 2071 c0 -11 31 -24 39 -16 3 3 -1 10 -9 15 -19 12 -30 12 -30
1z"/>
<path d="M4736 2054 c-10 -25 -7 -74 4 -74 6 0 10 20 10 45 0 47 -4 55 -14 29z"/>
<path d="M6370 2001 c0 -19 12 -42 35 -67 19 -21 35 -42 35 -46 0 -4 9 -8 20
-8 18 0 19 3 9 23 -7 12 -27 40 -46 61 -18 22 -33 46 -33 53 0 7 -4 13 -10 13
-5 0 -10 -13 -10 -29z"/>
<path d="M4586 1973 c9 -52 14 -54 14 -5 0 23 -5 42 -10 42 -7 0 -8 -14 -4
-37z"/>
<path d="M6332 1958 c3 -7 12 -14 21 -16 12 -2 15 1 11 12 -7 19 -38 22 -32 4z"/>
<path d="M6150 1911 c0 -6 4 -13 10 -16 6 -3 7 1 4 9 -7 18 -14 21 -14 7z"/>
<path d="M4930 1877 c0 -17 20 -37 37 -37 10 0 10 5 1 25 -12 26 -38 34 -38
12z"/>
<path d="M4520 4820 c0 -11 5 -20 10 -20 6 0 10 9 10 20 0 11 -4 20 -10 20 -5
0 -10 -9 -10 -20z"/>
<path d="M4273 4785 c-8 -19 -8 -25 0 -25 23 0 40 18 34 34 -9 23 -20 20 -34
-9z"/>
<path d="M4410 4796 c0 -2 7 -6 15 -10 8 -3 15 -1 15 4 0 6 -7 10 -15 10 -8 0
-15 -2 -15 -4z"/>
<path d="M4560 4770 c0 -11 4 -20 8 -20 4 0 8 9 9 20 1 11 -2 20 -8 20 -5 0
-9 -9 -9 -20z"/>
<path d="M4262 4448 c-5 -7 -12 -22 -14 -33 -2 -16 2 -19 22 -17 26 2 50 26
50 49 0 17 -44 17 -58 1z"/>
<path d="M4270 4369 c0 -6 9 -13 20 -16 22 -6 26 -18 10 -28 -5 -3 -10 -16
-10 -27 0 -11 -7 -26 -17 -33 -15 -11 -11 -35 7 -35 11 0 67 114 62 128 -2 6
-10 8 -18 5 -8 -3 -14 0 -14 6 0 6 -9 11 -20 11 -11 0 -20 -5 -20 -11z"/>
<path d="M4220 3813 c0 -5 5 -15 10 -23 8 -12 10 -11 10 8 0 12 -4 22 -10 22
-5 0 -10 -3 -10 -7z"/>
<path d="M4134 3689 c-3 -6 -2 -15 4 -21 6 -6 11 -2 15 11 5 22 -7 29 -19 10z"/>
<path d="M1870 4764 c0 -8 5 -12 10 -9 6 4 8 11 5 16 -9 14 -15 11 -15 -7z"/>
<path d="M1730 4730 c0 -5 5 -10 10 -10 6 0 10 5 10 10 0 6 -4 10 -10 10 -5 0
-10 -4 -10 -10z"/>
<path d="M1760 4710 c0 -5 5 -10 11 -10 5 0 7 5 4 10 -3 6 -8 10 -11 10 -2 0
-4 -4 -4 -10z"/>
<path d="M1657 4684 c-8 -9 1 -24 14 -24 6 0 7 6 4 13 -4 6 1 3 9 -7 13 -16
16 -17 16 -4 0 9 -7 19 -16 22 -19 7 -19 7 -27 0z"/>
<path d="M4245 2950 c3 -5 8 -10 11 -10 2 0 4 5 4 10 0 6 -5 10 -11 10 -5 0
-7 -4 -4 -10z"/>
<path d="M4320 2870 c0 -5 5 -10 10 -10 6 0 10 5 10 10 0 6 -4 10 -10 10 -5 0
-10 -4 -10 -10z"/>
<path d="M4470 2870 c-13 -8 -12 -10 3 -10 9 0 17 5 17 10 0 12 -1 12 -20 0z"/>
<path d="M4435 2858 c-9 -29 -9 -47 0 -48 5 0 11 13 12 30 3 30 -4 40 -12 18z"/>
<path d="M4130 2656 c0 -7 9 -16 19 -19 17 -4 18 -2 8 14 -14 22 -27 25 -27 5z"/>
<path d="M1610 2340 c0 -5 5 -10 11 -10 5 0 7 5 4 10 -3 6 -8 10 -11 10 -2 0
-4 -4 -4 -10z"/>
<path d="M1627 2276 c-3 -8 -2 -18 3 -21 13 -8 20 9 11 24 -6 10 -10 9 -14 -3z"/>
<path d="M1736 2275 c-10 -8 -15 -19 -11 -24 4 -8 11 -6 22 4 18 18 39 14 36
-6 -3 -15 35 -44 45 -35 9 9 -31 58 -54 66 -12 5 -27 3 -38 -5z"/>
<path d="M1666 2264 c-2 -6 -2 -15 1 -18 7 -6 33 12 33 24 0 12 -29 7 -34 -6z"/>
<path d="M1386 2261 c5 -5 27 -6 49 -1 l40 8 -49 1 c-30 1 -46 -3 -40 -8z"/>
<path d="M1586 2232 c-3 -5 1 -15 9 -22 8 -7 15 -9 15 -4 0 5 4 3 8 -4 7 -9
13 -8 27 8 18 19 18 20 -3 20 -11 0 -27 3 -35 6 -8 3 -18 1 -21 -4z"/>
<path d="M1456 2075 c4 -8 10 -12 15 -9 11 6 2 24 -11 24 -5 0 -7 -7 -4 -15z"/>
<path d="M1561 1981 c-8 -5 -9 -11 -3 -15 5 -3 12 1 16 9 6 17 6 18 -13 6z"/>
<path d="M1527 1933 c3 -7 9 -13 13 -13 4 0 10 6 13 13 3 7 -3 13 -13 13 -10
0 -16 -6 -13 -13z"/>
<path d="M1325 2460 c-3 -4 6 -10 20 -12 14 -3 25 -2 25 2 0 11 -39 20 -45 10z"/>
<path d="M1170 2335 c0 -8 2 -15 4 -15 2 0 6 7 10 15 3 8 1 15 -4 15 -6 0 -10
-7 -10 -15z"/>
<path d="M200 2429 c0 -5 5 -7 10 -4 6 3 10 8 10 11 0 2 -4 4 -10 4 -5 0 -10
-5 -10 -11z"/>
<path d="M3460 1540 c0 -33 8 -36 57 -18 50 18 39 39 -24 45 -31 3 -33 2 -33
-27z"/>
<path d="M3290 1523 c0 -5 11 -13 24 -19 20 -9 23 -9 18 8 -4 17 -42 27 -42
11z"/>
<path d="M3580 1496 c0 -4 7 -14 15 -22 8 -9 15 -11 15 -6 0 5 -7 15 -15 22
-8 7 -15 9 -15 6z"/>
<path d="M3280 1470 c0 -5 9 -10 21 -10 11 0 17 5 14 10 -3 6 -13 10 -21 10
-8 0 -14 -4 -14 -10z"/>
<path d="M4000 1130 c0 -5 5 -10 11 -10 5 0 7 5 4 10 -3 6 -8 10 -11 10 -2 0
-4 -4 -4 -10z"/>
<path d="M3943 1083 c9 -9 19 -14 23 -11 10 10 -6 28 -24 28 -15 0 -15 -1 1
-17z"/>
<path d="M4068 1046 c-10 -7 -18 -22 -18 -33 0 -26 -19 -43 -47 -43 -13 0 -23
-6 -24 -12 -3 -39 4 -75 19 -85 32 -26 126 -7 137 27 3 11 15 22 26 25 36 12
22 44 -47 107 -25 23 -32 25 -46 14z m36 -95 c4 -5 0 -12 -6 -14 -10 -4 -9 -8
2 -16 15 -10 9 -23 -13 -27 -7 -2 -21 -6 -33 -9 -28 -9 -60 21 -43 41 14 17
41 18 58 2 11 -11 13 -10 8 4 -8 24 14 40 27 19z"/>
<path d="M3940 1027 c0 -8 7 -18 16 -21 11 -4 14 -1 12 11 -4 21 -28 30 -28
10z"/>
<path d="M4260 907 c0 -2 9 -21 20 -43 16 -32 19 -35 20 -16 0 27 -17 62 -30
62 -6 0 -10 -1 -10 -3z"/>
<path d="M4449 755 c-7 -25 6 -65 21 -65 5 0 10 -9 10 -21 0 -15 5 -19 15 -15
11 4 15 -2 15 -20 0 -21 4 -25 23 -22 16 2 23 11 25 31 4 32 -19 56 -54 57
-26 0 -41 16 -46 50 -3 23 -4 23 -9 5z"/>
<path d="M4560 602 c0 -11 55 -52 70 -52 6 0 10 12 8 28 -3 23 -8 27 -40 30
-21 2 -38 -1 -38 -6z"/>
<path d="M4533 510 c-13 -5 -23 -14 -23 -20 0 -12 35 3 45 20 7 12 7 12 -22 0z"/>
<path d="M3825 1790 c-3 -5 3 -10 15 -10 12 0 18 5 15 10 -3 6 -10 10 -15 10
-5 0 -12 -4 -15 -10z"/>
<path d="M3800 1755 c-15 -18 -5 -35 21 -35 22 0 25 16 5 35 -12 12 -16 12
-26 0z"/>
<path d="M4890 1120 c-12 -8 -9 -10 13 -10 16 0 26 4 22 10 -8 12 -16 12 -35
0z"/>
<path d="M1725 1220 c3 -5 14 -10 23 -10 15 0 15 2 2 10 -20 13 -33 13 -25 0z"/>
<path d="M1870 1161 c0 -5 5 -13 10 -16 6 -3 10 -2 10 4 0 5 -4 13 -10 16 -5
3 -10 2 -10 -4z"/>
<path d="M1960 1115 c7 -8 20 -15 28 -15 13 0 12 3 -4 15 -25 19 -40 19 -24 0z"/>
<path d="M38 2064 c-4 -6 -4 -24 1 -39 4 -16 10 -25 12 -20 8 15 -5 72 -13 59z"/>
<path d="M0 1910 c0 -5 5 -10 10 -10 6 0 10 5 10 10 0 6 -4 10 -10 10 -5 0
-10 -4 -10 -10z"/>
<path d="M15 1880 c3 -5 8 -10 11 -10 2 0 4 5 4 10 0 6 -5 10 -11 10 -5 0 -7
-4 -4 -10z"/>
<path d="M10 1834 c0 -8 5 -12 10 -9 6 4 8 11 5 16 -9 14 -15 11 -15 -7z"/>
<path d="M22 1813 c-22 -16 -32 -73 -12 -73 6 0 10 11 10 25 0 16 6 25 15 25
8 0 15 -7 15 -15 0 -26 15 -16 25 18 10 30 9 33 -10 34 -11 1 -30 -5 -43 -14z"/>
<path d="M0 1709 c0 -11 4 -17 10 -14 5 3 10 13 10 21 0 8 -4 14 -10 14 -5 0
-10 -9 -10 -21z"/>
</g>
</svg>
